<svg width="320" height="744" viewBox="0 0 320 744" fill="none" xmlns="http://www.w3.org/2000/svg">
<g id="Element" opacity="0.3">
<g id="Group">
<path id="Vector" d="M-23.2859 579.405C-26.7837 578.453 -29.9837 577.112 -32.8477 575.395C-38.8534 571.793 -43.4355 566.507 -46.4665 559.683C-49.7253 552.35 -51.2215 543.159 -50.9156 532.366C-50.2999 510.673 -43.3601 486.382 -36.6489 462.889C-35.3315 458.276 -33.9691 453.507 -32.6867 448.868C-23.9524 417.249 -18.674 388.907 -16.5482 362.222C-12.3081 308.991 -19.4273 260.64 -37.138 222.395C-57.6211 178.166 -89.3474 150.276 -126.474 143.863C-148.296 140.094 -184.862 150.785 -212.528 178.51C-228.948 194.964 -239.64 215.274 -243.446 237.24L-243.612 237.292C-241.615 225.772 -237.77 214.725 -232.183 204.458C-227.057 195.039 -220.466 186.262 -212.592 178.372C-200.069 165.822 -184.713 155.857 -168.183 149.554C-152.909 143.731 -138.064 141.636 -126.38 143.654C-106.952 147.012 -89.0452 156.17 -73.1604 170.877C-58.7615 184.209 -46.5884 201.489 -36.9801 222.236C-19.2585 260.503 -12.134 308.881 -16.3775 362.144C-18.5059 388.846 -23.7873 417.204 -32.5256 448.84C-33.8066 453.479 -35.1701 458.251 -36.4888 462.864C-43.196 486.338 -50.1304 510.612 -50.7442 532.274C-51.3391 553.225 -45.2752 567.666 -32.722 575.193C-15.3382 585.619 13.9606 581.685 45.6519 564.668C91.3211 540.147 135.259 498.32 177.751 457.873C185.199 450.783 192.9 443.452 200.424 436.397C219.961 418.076 245.819 394.484 272.584 374.48C299.942 354.034 324.326 340.178 347.133 332.119C361.093 327.185 374.421 324.929 386.746 325.414C398.131 325.86 409.032 328.663 419.147 333.74C436.498 342.451 452.159 357.978 467.027 381.208C496.3 426.952 522.01 479.801 543.443 538.291C563.814 593.883 580.509 655.06 593.068 720.117L592.901 720.243C566.87 585.382 524.47 471.372 466.876 381.375C434.338 330.531 396.28 314.941 347.105 332.317C297.076 349.993 247.07 392.854 200.481 436.54C192.959 443.593 185.258 450.925 177.81 458.014C135.305 498.476 91.3531 540.315 45.6525 564.853C30.8842 572.784 16.0637 578.071 2.79507 580.141C-4.21434 581.235 -10.7378 581.423 -16.5965 580.698C-18.9345 580.416 -21.1656 579.982 -23.2859 579.405Z" fill="#FFE492"/>
</g>
<g id="Group_2">
<path id="Vector_2" d="M-14.2259 568.907C-23.1456 566.48 -30.1439 561.67 -35.0335 554.606C-40.4859 546.729 -43.2811 536.062 -43.3439 522.903C-43.3488 521.737 -43.3326 520.538 -43.2948 519.336C-42.6256 497.752 -36.0315 473.707 -29.6526 450.453C-28.3646 445.753 -27.0309 440.892 -25.7782 436.164C-18.3205 408.012 -13.579 382.702 -11.2864 358.789C-11.0047 355.845 -10.7565 352.885 -10.552 349.992C-6.80074 297.096 -14.3977 249.202 -32.5209 211.488C-53.5602 167.768 -85.7466 140.549 -123.152 134.847C-145.029 131.538 -181.614 142.561 -209.216 170.033C-225.744 186.483 -236.705 206.766 -240.918 228.688L-241.083 228.736C-238.875 217.246 -234.858 206.222 -229.143 195.976C-223.894 186.566 -217.212 177.791 -209.28 169.895C-196.712 157.385 -181.376 147.399 -164.933 141.017C-149.735 135.117 -134.866 132.853 -123.064 134.639C-103.477 137.626 -85.3712 146.428 -69.2482 160.802C-54.6446 173.822 -42.2357 190.823 -32.3667 211.331C-14.2325 249.067 -6.63278 296.989 -10.3849 349.915C-10.5904 352.81 -10.8383 355.773 -11.121 358.718C-13.4153 382.647 -18.1588 407.971 -25.6208 436.138C-26.8721 440.866 -28.2059 445.727 -29.4949 450.429C-35.868 473.668 -42.4582 497.695 -43.1264 519.25C-43.1636 520.448 -43.1798 521.647 -43.1752 522.81C-43.049 550.01 -31.4442 564.221 -14.1839 568.919C-14.0892 568.945 -13.9959 568.97 -13.9011 568.996C-14.0084 568.964 -14.1176 568.937 -14.2259 568.907ZM-10.4736 569.767C6.18622 572.892 27.3331 568.1 48.3645 558.134C93.7914 536.514 138.65 496.234 182.032 457.282C183.819 455.676 185.605 454.074 187.39 452.472C191.309 448.956 195.952 444.795 200.662 440.607C221.786 421.83 246.852 400.114 272.597 381.434C299.989 361.557 324.3 347.892 346.918 339.654C360.811 334.601 374.139 332.005 386.532 331.938C398.015 331.877 409.076 333.987 419.405 338.208C437.249 345.502 453.555 359.18 469.256 380.026C484.575 400.328 496.329 418.713 506.248 437.885C520.29 465.066 531.636 495.068 540.885 520.83C562.318 580.861 579.708 647.136 592.574 717.816L592.408 717.94C579.544 647.27 562.156 581 540.725 520.976C531.478 495.217 520.134 465.22 506.095 438.047C496.178 418.88 484.426 400.5 469.11 380.204C434.908 334.792 396.071 321.969 346.889 339.855C295.829 358.449 244.663 401.689 200.711 440.76C196 444.947 191.359 449.106 187.439 452.625C185.655 454.224 183.869 455.828 182.081 457.434C138.685 496.399 93.8106 536.693 48.3509 558.33C37.0944 563.663 26.102 567.341 15.6785 569.261C5.97784 571.044 -2.80026 571.212 -10.4736 569.767Z" fill="#FFE492"/>
</g>
<g id="Group_3">
<path id="Vector_3" d="M-4.93752 558.768C-6.01054 558.476 -7.05968 558.151 -8.08258 557.792C-16.7011 554.772 -23.4268 549.445 -28.0697 541.952C-33.1477 533.759 -35.7253 522.968 -35.7287 509.878C-35.7273 508.712 -35.7073 507.511 -35.6668 506.31C-34.9452 484.846 -28.6946 461.053 -22.6495 438.046C-21.3896 433.251 -20.0869 428.291 -18.8663 423.466C-11.733 395.328 -7.26409 370.156 -5.2061 346.511C-4.95274 343.587 -4.73189 340.645 -4.5537 337.768C-1.29236 285.208 -9.36699 237.772 -27.9028 200.59C-49.497 157.378 -82.1424 130.828 -119.828 125.836C-141.067 123.067 -177.052 133.057 -205.871 161.533C-222.521 177.985 -233.765 198.252 -238.388 220.144L-238.551 220.186C-236.129 208.716 -231.935 197.714 -226.088 187.482C-220.71 178.072 -213.929 169.296 -205.933 161.395C-193.322 148.934 -178.013 138.936 -161.66 132.478C-146.543 126.508 -131.655 124.077 -119.741 125.631C-99.9968 128.248 -81.6897 136.694 -65.3299 150.733C-50.5211 163.444 -37.877 180.164 -27.7485 200.432C-9.20285 237.639 -1.12441 285.101 -4.38664 337.691C-4.56582 340.57 -4.78535 343.512 -5.04074 346.44C-7.1007 370.099 -11.5727 395.286 -18.7102 423.439C-19.9318 428.266 -21.2345 433.226 -22.4944 438.021C-28.5348 461.015 -34.7815 484.792 -35.5028 506.229C-35.5434 507.431 -35.565 508.629 -35.5645 509.791C-35.5501 562.979 7.96585 569.113 51.0835 551.6C96.486 532.968 142.616 494.018 187.227 456.351L187.685 455.965C192.008 452.313 196.476 448.539 200.907 444.817C247.654 405.556 297.42 365.677 346.712 347.188C360.543 342.013 373.873 339.078 386.33 338.462C397.917 337.889 409.136 339.306 419.674 342.674C438.048 348.546 454.999 360.377 471.497 378.842C488.858 398.203 500.861 414.922 510.416 433.056C524.011 458.931 534.333 489.763 543.44 516.966C563.588 577.794 579.957 644.594 592.093 715.507L591.927 715.629C579.792 644.722 563.424 577.929 543.28 517.108C534.173 489.91 523.853 459.083 510.262 433.215C500.712 415.087 488.712 398.373 471.357 379.019C435.596 338.993 395.982 328.94 346.687 347.382C297.427 365.86 247.682 405.721 200.952 444.969C196.521 448.69 192.052 452.466 187.73 456.116L187.272 456.503C165.041 475.273 142.054 494.682 119.314 511.419C93.7595 530.226 71.4345 543.432 51.0628 551.791C29.8049 560.425 10.0888 562.858 -4.93752 558.768Z" fill="#FFE492"/>
</g>
<g id="Group_4">
<path id="Vector_4" d="M591.438 713.314C580.031 642.17 564.684 574.854 545.825 513.237C545.018 510.643 544.214 508.037 543.405 505.424C535.187 478.833 526.689 451.338 514.422 428.381C502.498 406.156 487.093 390.358 473.596 377.836C436.406 343.137 396.013 335.853 346.477 354.908C295.583 374.556 243.241 415.931 201.185 449.178C198.66 451.173 196.137 453.174 193.609 455.175C191.744 456.653 189.877 458.131 188.012 459.607C164.054 478.56 142.434 495.451 120.452 510.25C95.3408 527.155 73.528 538.605 53.7636 545.254C35.2408 551.487 18.0985 552.786 4.56638 549.105C2.10102 548.434 -0.242231 547.599 -2.45491 546.597C-10.5335 542.937 -16.8154 537.124 -21.1252 529.317C-25.8284 520.799 -28.1845 509.877 -28.1305 496.851C-28.124 495.684 -28.099 494.483 -28.0548 493.28C-27.2796 471.945 -21.3732 448.416 -15.6608 425.663C-14.4303 420.763 -13.1578 415.693 -11.9669 410.761C-5.15911 382.629 -0.963098 357.593 0.863977 334.223C1.09105 331.315 1.28224 328.393 1.43444 325.534C4.20451 273.31 -4.34645 226.333 -23.2925 189.68C-45.4416 146.977 -78.5467 121.1 -116.509 116.813C-142.498 113.954 -177.857 128.832 -202.497 152.989C-219.284 169.448 -230.821 189.711 -235.862 211.586L-236.024 211.623C-233.385 200.169 -229.01 189.178 -223.023 178.955C-217.51 169.542 -210.625 160.76 -202.559 152.85C-189.908 140.446 -174.629 130.439 -158.376 123.915C-143.343 117.881 -128.444 115.284 -116.423 116.607C-96.5209 118.853 -78.0153 126.943 -61.4187 140.649C-46.4062 153.049 -33.5251 169.491 -23.1362 189.519C-4.17794 226.194 4.37682 273.198 1.60485 325.453C1.453 328.314 1.2608 331.239 1.03372 334.146C-0.793971 357.531 -4.99332 382.579 -11.8031 410.725C-12.995 415.659 -14.2665 420.726 -15.498 425.629C-21.207 448.369 -27.1092 471.882 -27.884 493.192C-27.9273 494.393 -27.9526 495.592 -27.9595 496.757C-28.1924 552.784 15.9375 557.79 53.797 545.053C98.9675 529.855 146.254 492.449 187.977 459.445C189.843 457.967 191.709 456.489 193.574 455.013C196.1 453.011 198.625 451.011 201.15 449.015C225.156 430.039 248.688 411.653 272.64 395.327C300.185 376.552 324.346 363.267 346.503 354.712C360.276 349.413 373.606 346.137 386.121 344.976C397.819 343.89 409.196 344.617 419.938 347.133C438.883 351.572 456.48 361.556 473.733 377.651C487.234 390.179 502.646 405.983 514.576 428.221C526.85 451.187 535.348 478.69 543.568 505.285C544.376 507.898 545.182 510.504 545.989 513.099C564.85 574.721 580.197 642.044 591.605 713.195L591.438 713.314Z" fill="#FFE492"/>
</g>
<g id="Group_5">
<path id="Vector_5" d="M590.954 711.002C580.069 638.265 565.746 570.424 548.377 509.367C547.337 505.714 546.286 501.954 545.268 498.319C537.979 472.282 530.442 445.358 518.588 423.548C506.722 401.827 490.322 387.652 475.842 376.651C437.379 347.21 396.207 342.692 346.273 362.435C298.594 381.369 251.241 416.465 205.446 450.405L200.418 454.131C196.447 457.075 192.341 460.117 188.302 463.098C142.598 496.796 98.1263 527.935 56.4739 538.715C46.3664 541.332 36.7676 542.439 27.9388 542.01C18.4589 541.547 10.1324 539.311 3.19 535.362C-4.35001 531.071 -10.1893 524.781 -14.1653 516.665C-18.4924 507.833 -20.6302 496.782 -20.5186 483.823C-20.5064 482.651 -20.4763 481.448 -20.429 480.248C-19.6038 459.054 -14.0397 435.803 -8.6583 413.317C-7.45759 408.299 -6.21655 403.11 -5.05583 398.058C1.4221 369.929 5.34784 345.031 6.94466 321.94C7.14378 319.055 7.30869 316.149 7.43323 313.305C9.71335 261.418 0.686048 214.899 -18.6729 178.774C-41.3802 136.584 -74.9445 111.376 -113.188 107.797C-139.181 105.455 -174.503 120.514 -199.083 144.42C-216.02 160.891 -227.863 181.16 -233.334 203.037L-233.496 203.069C-230.634 191.623 -226.073 180.636 -219.942 170.417C-214.289 160.997 -207.292 152.203 -199.147 144.282C-186.457 131.942 -171.217 121.939 -155.071 115.353C-140.127 109.258 -125.224 106.502 -113.105 107.593C-93.0453 109.47 -74.3401 117.202 -57.5054 130.575C-42.2877 142.665 -29.1713 158.826 -18.5217 178.614C0.849144 214.758 9.88061 261.306 7.59958 313.223C7.47402 316.069 7.30947 318.977 7.11035 321.862C5.51388 344.965 1.58616 369.876 -4.89611 398.021C-6.05683 403.072 -7.29887 408.264 -8.49958 413.281C-13.8777 435.754 -19.4394 458.995 -20.263 480.164C-20.3097 481.36 -20.3387 482.56 -20.3523 483.732C-20.8277 538.913 19.0422 548.212 56.5139 538.513C98.1324 527.742 142.586 496.615 188.27 462.932C192.309 459.951 196.415 456.909 200.387 453.965L205.415 450.239C227.894 433.58 251.137 416.351 274.785 400.876C301.567 383.349 324.958 370.711 346.294 362.237C360.016 356.811 373.348 353.195 385.915 351.492C397.731 349.889 409.267 349.923 420.204 351.592C439.773 354.578 458.012 362.713 475.97 376.459C490.456 387.466 506.866 401.647 518.739 423.386C530.601 445.205 538.14 472.136 545.43 498.18C546.448 501.815 547.5 505.574 548.539 509.229C565.91 570.291 580.235 638.136 591.12 710.88L590.954 711.002Z" fill="#FFE492"/>
</g>
<g id="Group_6">
<path id="Vector_6" d="M590.467 708.688C580.274 635.364 566.971 567 550.925 505.498C549.719 500.876 548.51 496.082 547.341 491.447C540.897 465.899 534.232 439.482 522.748 418.717C510.837 397.301 493.487 384.836 478.083 375.468C438.542 351.187 396.591 349.438 346.063 369.964C301.912 387.987 257.871 418.574 215.279 448.152C210.797 451.265 206.163 454.483 201.658 457.596C196.368 461.253 192.335 464.028 188.586 466.59C168.509 480.304 144.932 495.97 122.281 508.173C98.2777 521.103 77.637 528.955 59.1773 532.18C49.4706 533.875 40.3335 534.124 32.0195 532.917C23.0921 531.621 15.2886 528.664 8.82856 524.126C1.82921 519.209 -3.56631 512.443 -7.21141 504.014C-11.1641 494.874 -13.081 483.696 -12.9117 470.795C-12.8937 469.626 -12.8599 468.422 -12.8092 467.219C-11.9341 446.181 -6.71082 423.219 -1.66102 401.013C-0.489815 395.863 0.721346 390.538 1.8512 385.353C7.99926 357.217 11.6524 332.457 13.0201 309.654C13.1918 306.787 13.3284 303.901 13.4267 301.074C15.2168 249.523 5.71185 203.461 -14.0586 167.866C-37.3206 126.187 -71.3458 101.652 -109.866 98.7773C-131.826 97.2257 -166.862 108.076 -195.631 135.811C-212.736 152.301 -224.9 172.589 -230.806 194.481L-230.965 194.508C-227.877 183.06 -223.124 172.073 -216.839 161.85C-211.037 152.414 -203.923 143.606 -195.69 135.67C-182.966 123.403 -167.77 113.412 -151.739 106.771C-136.888 100.62 -121.989 97.7088 -109.783 98.5709C-89.5652 100.079 -70.6591 107.454 -53.5889 120.493C-38.1675 132.272 -24.8155 148.155 -13.9064 167.704C5.87597 203.319 15.3861 249.407 13.595 300.988C13.4967 303.815 13.3595 306.705 13.1867 309.574C11.8181 332.389 8.163 357.162 2.01296 385.311C0.883449 390.499 -0.327742 395.823 -1.49893 400.974C-6.54774 423.169 -11.7664 446.118 -12.6409 467.133C-12.6906 468.334 -12.7247 469.535 -12.7417 470.702C-13.3521 517.044 13.5545 539.95 59.2331 531.97C100.599 524.746 145.808 495.622 188.567 466.414C192.316 463.851 196.347 461.076 201.638 457.419C206.143 454.306 210.777 451.089 215.259 447.976C236.227 433.414 257.907 418.357 279.846 404.703C304.654 389.261 326.323 377.833 346.087 369.765C359.769 364.207 373.099 360.251 385.71 358.008C397.655 355.882 409.35 355.226 420.471 356.051C440.718 357.558 459.604 363.844 478.208 375.268C493.619 384.643 510.983 397.114 522.903 418.548C534.395 439.327 541.06 465.752 547.507 491.307C548.676 495.942 549.885 500.736 551.091 505.358C567.136 566.867 580.442 635.236 590.637 708.565L590.467 708.688Z" fill="#FFE492"/>
</g>
<g id="Group_7">
<path id="Vector_7" d="M589.977 706.375C580.479 632.46 568.197 563.571 553.47 501.627C552.217 496.358 550.979 490.848 549.78 485.52C544.071 460.14 538.17 433.898 526.908 413.883C514.889 392.655 496.615 381.953 480.324 374.283C440.502 355.304 396.515 356.353 345.852 377.49C305.457 394.432 264.988 420.79 225.852 446.282C217.947 451.43 209.773 456.755 201.889 461.805C197.065 464.897 192.806 467.605 188.866 470.084C170.553 481.592 146.536 496.204 123.186 507.131C99.7241 518.109 79.669 524.165 61.8764 525.643C42.4701 527.256 26.074 522.844 14.4602 512.888C8.00356 507.351 3.04949 500.109 -0.26411 491.363C-3.84165 481.921 -5.53868 470.617 -5.3121 457.771C-5.289 456.601 -5.25016 455.397 -5.19678 454.194C-4.27303 433.332 0.608249 410.677 5.32923 388.77C6.47118 383.471 7.65247 377.992 8.75003 372.655C14.5648 344.507 17.9474 319.882 19.0886 297.375C19.2331 294.526 19.3423 291.658 19.4132 288.849C20.7135 237.635 10.7332 192.03 -9.45081 156.967C-33.2683 115.801 -67.7537 91.9371 -106.552 89.7669C-132.9 88.405 -167.298 103.438 -192.143 127.172C-209.432 143.688 -221.93 164.008 -228.285 185.936L-228.442 185.955C-225.122 174.497 -220.17 163.499 -213.726 153.268C-207.77 143.812 -200.527 134.984 -192.201 127.029C-179.447 114.845 -164.3 104.872 -148.397 98.1878C-133.646 91.9885 -118.755 88.9221 -106.471 89.5577C-86.0956 90.6966 -66.9896 97.7162 -49.6816 110.419C-34.0551 121.889 -20.4675 137.494 -9.29794 156.801C10.897 191.884 20.8834 237.514 19.5826 288.761C19.5117 291.57 19.4014 294.44 19.2573 297.292C18.1141 319.811 14.7306 344.448 8.91378 372.609C7.81622 377.946 6.63396 383.427 5.49199 388.727C0.773367 410.622 -4.10564 433.266 -5.02841 454.108C-5.08179 455.311 -5.11998 456.511 -5.14305 457.68C-5.95946 503.666 19.1188 528.994 61.9416 525.436C100.982 522.191 146.01 496.829 188.852 469.906C192.79 467.428 197.05 464.722 201.873 461.63C209.755 456.579 217.929 451.256 225.833 446.108C264.978 420.611 305.455 394.246 345.869 377.298C359.523 371.601 372.854 367.307 385.495 364.53C397.584 361.877 409.437 360.528 420.726 360.519C441.719 360.505 461.25 364.944 480.435 374.086C496.737 381.762 515.027 392.471 527.057 413.722C538.328 433.751 544.233 460.004 549.943 485.393C551.141 490.721 552.38 496.229 553.634 501.498C568.361 563.447 580.645 632.341 590.144 706.261L589.977 706.375Z" fill="#FFE492"/>
</g>
<g id="Group_8">
<path id="Vector_8" d="M589.492 704.062C580.697 629.551 569.434 560.142 556.02 497.759C554.788 492.026 553.59 485.985 552.433 480.143C547.399 454.746 542.195 428.482 531.07 409.051C518.901 387.935 499.723 379.028 482.566 373.099C442.227 358.935 397.439 362.833 345.645 385.018C309.268 400.683 272.679 423.082 237.294 444.741C225.127 452.19 213.634 459.225 202.125 466.015C197.442 468.779 193.199 471.253 189.152 473.575C163.049 488.54 142.379 498.87 124.099 506.083C101.167 515.133 81.6989 519.394 64.5834 519.105C57.944 518.992 51.6958 518.136 45.9221 516.565C35.6872 513.779 26.9358 508.749 20.1003 501.644C7.73019 488.785 1.74054 469.64 2.29743 444.741C2.32689 443.562 2.3698 442.359 2.42659 441.161C3.39656 420.495 7.937 398.173 12.3292 376.584C13.4415 371.114 14.5924 365.461 15.6597 359.949C21.1398 331.779 24.2483 307.293 25.1679 285.089C25.285 282.258 25.367 279.408 25.4106 276.617C26.2209 225.739 15.7629 180.592 -4.83263 146.059C-29.2067 105.407 -64.1498 82.2129 -103.227 80.747C-129.922 79.8622 -163.432 94.6738 -188.596 118.483C-206.087 135.032 -218.935 155.399 -225.752 177.38L-225.909 177.396C-222.348 165.917 -217.191 154.901 -210.579 144.654C-204.458 135.168 -197.083 126.316 -188.653 118.34C-175.873 106.249 -160.786 96.306 -145.018 89.5851C-130.371 83.3413 -115.502 80.13 -103.148 80.5394C-82.6149 81.3092 -63.308 87.9715 -45.7646 100.341C-29.934 111.503 -16.1121 126.828 -4.67976 145.892C15.9267 180.447 26.3909 225.619 25.581 276.527C25.5363 279.32 25.4544 282.17 25.3376 285.004C24.4184 307.218 21.3079 331.718 15.8254 359.899C14.7582 365.411 13.6076 371.067 12.4939 376.536C8.10411 398.114 3.56501 420.427 2.59628 441.076C2.5405 442.271 2.49623 443.474 2.46778 444.651C1.42598 491.149 24.0944 518.211 64.6611 518.895C103.278 519.546 149.26 496.257 189.149 473.389C193.194 471.067 197.437 468.595 202.119 465.83C213.627 459.04 225.119 452.007 237.286 444.558C272.677 422.894 309.273 400.493 345.663 384.822C359.309 378.977 372.641 374.342 385.291 371.046C397.543 367.854 409.556 365.811 420.994 364.978C442.806 363.391 462.983 365.98 482.673 372.895C499.845 378.828 519.04 387.744 531.223 408.884C542.358 428.33 547.564 454.605 552.599 480.012C553.757 485.855 554.954 491.895 556.186 497.626C569.601 560.013 580.862 629.43 589.658 703.946L589.492 704.062Z" fill="#FFE492"/>
</g>
<g id="Group_9">
<path id="Vector_9" d="M589.012 701.752C580.809 625.583 570.853 557.591 558.576 493.89C557.404 487.813 556.343 481.643 555.218 475.111C550.825 449.575 546.281 423.172 535.238 404.221C522.817 383.044 501.767 375.833 484.815 371.918C444.358 362.36 398.768 369.108 345.441 392.55C313.398 406.713 281.05 425.388 249.765 443.451C233.323 452.944 217.794 461.908 202.364 470.228C197.782 472.7 193.555 474.938 189.442 477.071C163.959 490.262 143.489 499.147 125.017 505.035C102.596 512.18 83.7147 514.645 67.2941 512.568C58.8572 511.501 51.1098 509.161 44.2668 505.613C37.022 501.857 30.7905 496.738 25.7452 490.4C14.5627 476.35 9.23477 456.608 9.90998 431.718C9.94451 430.538 9.99249 429.334 10.052 428.137C11.065 407.697 15.2666 385.733 19.3291 364.491C20.413 358.824 21.5342 352.963 22.5713 347.251C27.712 319.054 30.5504 294.704 31.2479 272.811C31.3364 269.997 31.391 267.165 31.41 264.393C31.7304 213.852 20.7961 169.163 -0.211005 135.159C-19.6475 103.869 -45.4543 83.2792 -74.5313 75.3649C-82.7515 73.1275 -91.2264 71.904 -99.8995 71.7352C-126.507 71.3349 -159.909 86.2614 -184.999 109.762C-202.708 126.352 -215.925 146.779 -223.22 168.835L-223.375 168.844C-219.569 157.335 -214.197 146.291 -207.41 136.022C-201.119 126.502 -193.597 117.618 -185.056 109.617C-172.257 97.6281 -157.236 87.725 -141.615 80.9759C-126.868 74.6043 -112.416 71.3372 -99.8252 71.5286C-79.1349 71.9293 -59.6281 78.2363 -41.8469 90.2697C-25.8115 101.12 -11.7516 116.165 -0.0598447 134.989C20.9592 169.013 31.901 213.727 31.5811 264.298C31.5634 267.071 31.5091 269.906 31.4196 272.721C30.7211 294.626 27.8818 318.987 22.7391 347.197C21.702 352.909 20.5822 358.771 19.4972 364.44C15.4361 385.672 11.2357 407.628 10.223 428.052C10.1645 429.246 10.1166 430.451 10.0817 431.629C8.82002 478.171 29.7059 507.594 67.385 512.359C105.513 517.18 152.647 495.93 189.45 476.879C193.563 474.746 197.79 472.508 202.37 470.038C217.797 461.722 233.325 452.755 249.765 443.264C281.054 425.2 313.408 406.519 345.462 392.352C372.917 380.283 397.712 372.791 421.266 369.444C443.982 366.215 464.804 366.957 484.918 371.71C496.42 374.366 505.278 377.601 512.795 381.888C522.5 387.423 529.892 394.672 535.394 404.053C546.448 423.021 550.992 449.438 555.389 474.986C556.512 481.518 557.575 487.686 558.745 493.763C571.023 557.466 580.979 625.463 589.182 701.636L589.012 701.752Z" fill="#FFE492"/>
</g>
<g id="Group_10">
<path id="Vector_10" d="M588.52 699.436C581.039 622.654 572.075 554.154 561.12 490.017C560.036 483.672 559.084 477.18 558.075 470.307C554.297 444.554 550.392 417.922 539.396 399.385C526.772 378.235 504.792 372.961 487.055 370.728C447.007 365.496 400.614 375.095 345.23 400.072C317.901 412.462 290.221 427.62 263.452 442.28C242.291 453.868 222.304 464.815 202.598 474.429C198.142 476.604 193.81 478.666 189.724 480.553C165.107 491.916 144.24 499.575 125.929 503.969C104.003 509.232 85.7074 509.904 69.9971 506.021C62.0042 504.045 54.719 500.84 48.3502 496.493C41.6741 491.936 35.9661 486.098 31.3854 479.139C21.3874 463.949 16.7198 443.609 17.5145 418.682C17.5548 417.506 17.6065 416.3 17.6704 415.098C18.7238 394.921 22.5858 373.352 26.3197 352.494C27.3765 346.592 28.4691 340.488 29.4761 334.538C34.276 306.304 36.8417 282.093 37.3223 260.518C37.3835 257.722 37.4108 254.908 37.4025 252.154C37.233 201.949 25.821 157.718 4.40232 124.243C-21.0846 84.6245 -56.9491 62.7715 -96.5813 62.7099C-123.073 62.7785 -156.35 77.8017 -181.356 100.981C-199.304 117.618 -212.907 138.122 -220.697 160.276L-220.849 160.279C-216.788 148.73 -211.194 137.65 -204.221 127.348C-197.747 117.785 -190.073 108.864 -181.411 100.834C-168.6 88.9588 -153.655 79.1047 -138.189 72.3363C-123.561 65.9347 -109.148 62.5344 -96.5059 62.5013C-75.6577 62.5353 -55.9504 68.4826 -37.9337 80.182C-21.6953 90.7261 -7.40103 105.493 4.55215 124.073C25.985 157.566 37.4022 201.824 37.5708 252.059C37.5805 254.813 37.5535 257.63 37.4913 260.427C37.0111 282.014 34.443 306.236 29.6421 334.481C28.6365 340.431 27.5426 346.536 26.4862 352.44C22.7536 373.289 18.8929 394.849 17.8401 415.012C17.7772 416.212 17.7255 417.418 17.6849 418.592C16.1707 466.11 34.7825 497.089 70.0971 505.812C98.7502 512.894 136.768 504.804 189.739 480.356C193.823 478.468 198.153 476.408 202.608 474.232C222.31 464.62 242.295 453.677 263.453 442.088C290.226 427.427 317.91 412.265 345.247 399.873C373.172 387.279 398.121 378.784 421.525 373.899C445.234 368.95 466.7 367.842 487.147 370.515C504.903 372.748 526.908 378.032 539.551 399.214C550.558 417.773 554.466 444.417 558.246 470.182C559.253 477.055 560.206 483.545 561.29 489.888C572.247 554.027 581.21 622.531 588.69 699.318L588.52 699.436Z" fill="#FFE492"/>
</g>
<g id="Group_11">
<path id="Vector_11" d="M588.037 697.124C581.283 619.727 573.314 550.716 563.673 486.15C562.694 479.595 561.869 472.837 560.997 465.681C557.822 439.651 554.538 412.734 543.563 394.554C530.719 373.41 507.819 370.082 489.303 369.544C449.839 368.234 403.995 380.327 345.026 407.601C322.878 417.895 300.384 429.677 278.631 441.072C252.21 454.911 227.254 467.984 202.836 478.639C198.435 480.561 194.12 482.382 190.013 484.046C165.831 493.837 145.169 500.008 126.849 502.91C116.588 504.535 106.963 505.116 98.2411 504.638C88.9389 504.127 80.3477 502.392 72.7059 499.484C57.202 493.581 45.2 482.95 37.0338 467.886C28.2146 451.616 24.2078 430.681 25.1275 405.656C25.1746 404.473 25.2313 403.266 25.2949 402.07C26.3852 382.205 29.9066 361.08 33.3125 340.653C34.343 334.469 35.4096 328.075 36.3869 321.837C40.8409 293.558 43.135 269.483 43.4014 248.237C43.4363 245.457 43.4349 242.661 43.3997 239.927C42.7412 190.056 30.8529 146.284 9.02066 113.342C-17.0225 74.2408 -53.3458 53.0591 -93.2571 53.6969C-136.075 54.5481 -196.005 92.2693 -218.165 151.728L-218.315 151.724C-212.772 136.85 -204.822 122.875 -194.686 110.182C-185.428 98.5898 -174.534 88.2742 -162.307 79.5248C-150.938 71.389 -138.942 64.9585 -126.654 60.4106C-114.966 56.0856 -103.392 53.6904 -93.1845 53.4875C-72.1786 53.1524 -52.2714 58.7444 -34.0179 70.1102C-17.5754 80.3465 -3.0455 94.8348 9.16811 113.174C31.0112 146.137 42.9071 189.935 43.567 239.833C43.6026 242.57 43.6039 245.366 43.5694 248.148C43.303 269.404 41.0069 293.492 36.5519 321.783C35.5747 328.021 34.5081 334.415 33.4766 340.601C30.0724 361.021 26.5523 382.137 25.4629 401.991C25.398 403.186 25.3399 404.393 25.2939 405.574C23.5282 453.667 40.4056 486.945 72.8137 499.284C100.252 509.726 138.593 504.68 190.033 483.852C194.139 482.188 198.452 480.369 202.852 478.447C227.265 467.794 252.217 454.723 278.634 440.885C300.389 429.489 322.886 417.705 345.038 407.409C404.031 380.124 449.895 368.027 489.381 369.336C501.823 369.697 511.454 371.351 519.694 374.545C530.227 378.627 538.083 385.117 543.713 394.387C554.701 412.587 557.986 439.52 561.163 465.564C562.036 472.718 562.861 479.476 563.838 486.029C573.481 550.6 581.45 619.613 588.203 697.014L588.037 697.124Z" fill="#FFE492"/>
</g>
<g id="Group_12">
<path id="Vector_12" d="M587.554 694.813C581.535 616.792 574.557 547.273 566.226 482.281C565.363 475.556 564.678 468.572 563.955 461.174C561.372 434.824 558.702 407.575 547.729 389.721C534.502 368.325 509.333 367.281 491.551 368.357C443.376 371.104 390.345 393.541 344.822 415.13C328.439 422.934 311.768 431.385 295.645 439.558C263.301 455.953 232.752 471.439 203.076 482.85C198.71 484.529 194.414 486.107 190.302 487.541C166.487 495.823 146.033 500.505 127.773 501.849C107.074 503.374 89.4591 500.38 75.4165 492.947C60.9909 485.311 49.9778 473.092 42.686 456.629C35.0368 439.364 31.6907 417.833 32.7387 392.633C32.7911 391.45 32.8516 390.242 32.9198 389.043C34.0398 369.557 37.2217 348.946 40.298 329.012C41.3071 322.48 42.3481 315.727 43.2982 309.137C47.4614 280.408 49.425 257.155 49.4824 235.956C49.49 233.194 49.4616 230.418 49.3987 227.7C48.2466 178.168 35.8806 134.853 13.6379 102.438C-12.9625 63.8564 -49.7448 43.3437 -89.934 44.6813C-133.27 46.2755 -192.137 83.5525 -215.636 143.179L-215.783 143.169C-209.953 128.376 -201.816 114.467 -191.601 101.83C-182.241 90.2526 -171.311 79.9328 -159.114 71.1613C-147.74 62.9806 -135.753 56.4757 -123.484 51.8232C-111.801 47.3928 -100.174 44.852 -89.8613 44.4719C-68.6966 43.7681 -48.5908 49.0045 -30.1009 60.0341C-13.4542 69.9626 1.31127 84.1726 13.7863 102.268C36.0433 134.7 48.4155 178.04 49.5653 227.602C49.6273 230.322 49.6559 233.101 49.6497 235.863C49.5937 257.072 47.6267 280.337 43.4625 309.077C42.5125 315.668 41.4704 322.423 40.4614 328.955C37.3867 348.882 34.2066 369.486 33.0852 388.963C33.0169 390.162 32.9561 391.368 32.9037 392.55C30.8672 441.537 46.0061 477.121 75.5324 492.75C102.013 506.767 139.565 504.996 190.332 487.341C194.441 485.908 198.737 484.333 203.099 482.652C232.769 471.244 263.313 455.762 295.651 439.367C311.775 431.195 328.448 422.741 344.834 414.937C375.444 400.421 399.983 390.22 422.056 382.834C448.041 374.14 470.794 369.337 491.619 368.149C504.336 367.379 514.65 368.27 523.149 370.875C534.092 374.229 542.182 380.338 547.879 389.554C558.868 407.43 561.539 434.695 564.122 461.062C564.847 468.458 565.53 475.442 566.393 482.162C574.726 547.157 581.702 616.68 587.723 694.704L587.554 694.813Z" fill="#FFE492"/>
</g>
<g id="Group_13">
<path id="Vector_13" d="M587.065 692.498C581.784 613.851 575.8 543.823 568.772 478.408C568.035 471.548 567.499 464.368 566.931 456.766C564.936 430.059 562.874 402.443 551.889 384.887C538.414 363.465 512.28 364.515 493.793 367.17C448.208 373.582 399.261 396.093 344.612 422.656C334.744 427.472 324.695 432.479 314.976 437.323C277.596 455.951 238.946 475.213 203.308 487.056C198.977 488.498 194.695 489.834 190.583 491.03C167.402 497.756 146.579 501.036 128.691 500.78C108.426 500.491 91.4124 495.654 78.1166 486.406C64.7615 477.116 54.7397 463.309 48.3286 445.367C41.8411 427.209 39.152 405.084 40.3369 379.606C40.3945 378.423 40.46 377.214 40.531 376.016C41.6755 356.998 44.514 336.993 47.2588 317.648C48.2477 310.677 49.2704 303.47 50.1946 296.438C53.9996 267.641 55.7001 244.521 55.5471 223.676C55.5271 220.939 55.4711 218.179 55.3815 215.474C53.7466 166.273 40.9055 123.417 18.2475 91.5328C-8.90873 53.4711 -46.1498 33.6297 -86.6184 35.6643C-128.93 37.9193 -187.642 73.3682 -213.114 134.626L-213.258 134.61C-207.14 119.896 -198.818 106.056 -188.525 93.4752C-179.061 81.9092 -168.095 71.5876 -155.93 62.7935C-133.487 46.5713 -108.199 36.6068 -86.5485 35.4542C-65.2271 34.3833 -44.9205 39.2624 -26.1927 49.9563C-9.34298 59.5791 5.65781 73.5081 18.3943 91.3598C41.0652 123.261 53.9127 166.145 55.5525 215.371C55.6424 218.078 55.6984 220.838 55.7188 223.577C55.8708 244.433 54.1704 267.562 50.363 296.37C49.4378 303.404 48.4165 310.612 47.4275 317.582C44.6834 336.924 41.8456 356.924 40.701 375.932C40.6287 377.13 40.5642 378.337 40.5067 379.52C38.1356 430.494 51.1846 467.387 78.242 486.211C103.297 503.64 141.105 505.193 190.619 490.826C194.73 489.631 199.008 488.296 203.336 486.856C238.962 475.016 277.607 455.758 314.979 437.132C324.699 432.288 334.748 427.281 344.617 422.465C368.54 410.838 396.244 397.573 422.313 387.298C449.583 376.551 472.981 369.9 493.847 366.965C507.003 365.076 517.716 365.154 526.595 367.205C537.793 369.79 546.35 375.684 552.034 384.721C556.955 392.585 560.529 403.295 562.959 417.464C565.105 429.975 566.117 443.541 567.097 456.658C567.663 464.258 568.2 471.438 568.937 478.295C575.965 543.713 581.949 613.744 587.23 692.392L587.065 692.498Z" fill="#FFE492"/>
</g>
<g id="Group_14">
<path id="Vector_14" d="M586.582 690.186C582.046 610.909 577.055 540.371 571.325 474.541C570.717 467.57 570.336 460.22 569.932 452.439C568.522 425.348 567.066 397.334 556.055 380.059C545.746 363.951 526.115 359.349 496.04 365.987C454.041 375.167 409.514 397.523 362.37 421.194C356.5 424.142 350.431 427.189 344.407 430.19C342.046 431.368 339.682 432.551 337.321 433.732C292.459 456.168 246.071 479.369 203.547 491.269C199.248 492.474 194.983 493.57 190.873 494.525C167.951 499.842 147.343 501.589 129.623 499.714C109.781 497.614 93.3632 490.937 80.8305 479.87C68.5313 469.007 59.5008 453.61 53.9902 434.108C48.6489 415.205 46.6173 392.487 47.9528 366.583C48.0154 365.399 48.086 364.189 48.1607 362.99C49.3174 344.582 51.8117 325.321 54.2216 306.694C55.1985 299.151 56.2072 291.35 57.1116 283.736C60.5531 254.861 61.9917 231.873 61.6338 211.394C61.5861 208.673 61.5032 205.933 61.3863 203.247C59.2563 154.383 45.9387 111.982 22.8681 80.6293C-4.84367 43.09 -42.5451 23.9172 -83.2919 26.6491C-125.169 29.557 -184.013 65.3913 -210.581 126.078L-210.725 126.058C-204.316 111.42 -195.81 97.6487 -185.44 85.1279C-175.872 73.5741 -164.869 63.2463 -152.737 54.4342C-130.328 38.1564 -104.993 27.9546 -83.2253 26.4427C-61.745 25.0031 -41.2388 29.5245 -22.2757 39.8845C-5.2208 49.1973 10.017 62.8483 23.0149 80.4564C46.0973 111.829 59.4249 154.253 61.5532 203.142C61.6701 205.828 61.7537 208.573 61.8015 211.294C62.1584 231.785 60.7221 254.78 57.2783 283.666C56.3753 291.28 55.3642 299.083 54.3886 306.626C51.9781 325.248 49.4858 344.505 48.3294 362.906C48.2547 364.105 48.1837 365.313 48.1212 366.497C45.4063 419.169 56.7636 458.304 80.9654 479.677C104.856 500.775 141.85 505.699 190.921 494.315C195.029 493.36 199.291 492.265 203.588 491.063C246.097 479.168 292.477 455.972 337.329 433.538C339.693 432.355 342.055 431.174 344.416 429.995C350.44 426.994 356.508 423.947 362.378 421.001C409.531 397.326 454.07 374.964 496.088 365.781C509.676 362.781 520.786 362.048 530.055 363.536C541.655 365.4 550.452 370.903 556.204 379.889C561.136 387.626 564.593 398.349 566.773 412.67C568.695 425.305 569.41 439.046 570.101 452.335C570.506 460.113 570.888 467.462 571.495 474.429C577.225 540.262 582.216 610.803 586.752 690.082L586.582 690.186Z" fill="#FFE492"/>
</g>
<g id="Group_15">
<path id="Vector_15" d="M586.09 687.872C582.599 614.198 578.488 541.12 573.868 470.669C573.38 463.532 573.15 455.945 572.906 447.914C572.116 421.79 571.218 392.181 560.21 375.225C549.704 359.087 529.445 355.677 498.277 364.798C461.248 375.583 423.165 395.894 382.845 417.398C370.219 424.131 357.161 431.097 344.192 437.714C321.538 449.298 297.214 461.46 272.84 471.932C246.735 483.149 224.144 490.848 203.773 495.474C199.493 496.445 195.246 497.301 191.149 498.011C168.483 501.941 148.101 502.14 130.57 498.604C111.163 494.688 95.3354 486.185 83.5279 473.325C61.8198 449.381 52.4059 409.085 55.5497 353.553C55.6174 352.368 55.693 351.157 55.7704 349.958C56.9222 332.376 59.0635 314.079 61.1352 296.383C62.1098 288.055 63.1189 279.441 64.0066 271.033C67.0825 242.066 68.2556 219.212 67.6986 199.111C67.6232 196.406 67.5129 193.684 67.3691 191.018C64.7553 142.488 50.9589 100.547 27.4768 69.7233C-0.790905 32.7039 -38.9521 14.2045 -79.9774 17.6313C-122.452 21.2516 -180.087 56.7273 -208.062 117.527L-208.201 117.498C-201.501 102.935 -192.808 89.2332 -182.365 76.7717C-172.69 65.2285 -161.651 54.8966 -149.554 46.0656C-138.157 37.7453 -126.194 31.0142 -113.997 26.0573C-102.155 21.2465 -90.6878 18.3407 -79.9125 17.4221C-58.2743 15.6158 -37.5672 19.7799 -18.3675 29.8038C-1.11058 38.8129 14.3625 52.1831 27.6219 69.5475C51.1182 100.389 64.9221 142.355 67.5394 190.909C67.6822 193.577 67.7942 196.302 67.8696 199.007C68.4256 219.12 67.2525 241.983 64.1767 270.959C63.2879 279.369 62.2788 287.983 61.3032 296.313C59.2326 314.007 57.0909 332.301 55.9395 349.877C55.8597 351.078 55.7864 352.287 55.7174 353.471C52.5765 408.96 61.9804 449.223 83.6682 473.143C106.107 497.582 143.292 506.11 191.204 497.804C195.298 497.092 199.544 496.239 203.82 495.269C249.365 484.93 298.141 461.073 344.197 437.523C357.166 430.906 370.222 423.942 382.848 417.208C423.176 395.7 461.267 375.384 498.314 364.595C529.531 355.46 549.827 358.88 560.358 375.055C565.289 382.649 568.622 393.356 570.549 407.784C572.248 420.507 572.668 434.39 573.075 447.814C573.319 455.845 573.548 463.43 574.037 470.562C578.657 541.015 582.769 614.094 586.259 687.769L586.09 687.872Z" fill="#FFE492"/>
</g>
<g id="Group_16">
<path id="Vector_16" d="M585.609 685.56C582.83 611.678 579.74 538.076 576.423 466.799C576.078 459.626 576.012 451.951 575.941 443.826C575.709 417.25 575.446 387.126 564.378 370.39C553.667 354.22 532.781 352.002 500.528 363.607C466.748 375.739 431.137 396.159 396.697 415.909C379.429 425.811 361.571 436.051 343.991 445.239C316.233 459.76 293.632 470.449 272.862 478.88C247.252 489.275 224.731 496.079 204.015 499.68C199.762 500.421 195.531 501.033 191.44 501.5C170.127 503.932 150.903 502.865 134.245 498.334C133.319 498.082 132.405 497.819 131.496 497.546C112.472 491.831 97.2471 481.479 86.2419 466.782C80.9435 459.66 76.4717 451.233 72.9525 441.734C69.644 432.807 67.0746 422.652 65.3147 411.554C62.148 391.588 61.4435 368.352 63.1619 340.525C63.2369 339.328 63.3143 338.129 63.3964 336.927C64.514 320.536 66.2925 303.569 68.0133 287.159C69.0056 277.687 70.0334 267.892 70.92 258.326C73.6585 228.858 74.5423 206.804 73.7802 186.824C73.6775 184.136 73.54 181.432 73.3688 178.784C70.2644 130.595 55.9917 89.1128 32.0981 58.818C3.27484 22.3209 -35.3464 4.49251 -76.6502 8.61428C-118.663 12.844 -176.421 48.6751 -205.527 108.974L-205.664 108.94C-192.106 80.8531 -171.598 56.2187 -146.357 37.7007C-134.948 29.3305 -122.994 22.5251 -110.822 17.4685C-98.9798 12.5493 -87.4614 9.4999 -76.5853 8.4051C-54.7895 6.22971 -33.8825 10.0385 -14.4464 19.7264C3.01364 28.4297 18.7223 41.5215 32.2428 58.6398C56.151 88.9548 70.4313 130.462 73.5384 178.68C73.7086 181.33 73.8478 184.037 73.9506 186.724C74.7117 206.716 73.8289 228.777 71.088 258.256C70.2005 267.824 69.1741 277.62 68.1804 287.091C66.4606 303.499 64.6818 320.464 63.5648 336.85C63.4827 338.052 63.404 339.25 63.3299 340.445C59.6778 399.579 67.2199 440.847 86.3873 466.608C113.001 502.155 158.238 505.091 191.502 501.294C195.59 500.826 199.817 500.216 204.069 499.475C251.715 491.191 303.875 466.039 343.994 445.052C361.571 435.868 379.427 425.628 396.693 415.727C431.141 395.975 466.76 375.548 500.555 363.411C514.988 358.218 526.895 355.858 536.955 356.198C549.362 356.617 558.638 361.336 564.525 370.224C569.481 377.719 572.707 388.475 574.387 403.107C575.866 415.999 575.99 430.098 576.108 443.735C576.179 451.858 576.245 459.53 576.59 466.699C579.907 537.976 582.998 611.578 585.778 685.46L585.609 685.56Z" fill="#FFE492"/>
</g>
<g id="Group_17">
<path id="Vector_17" d="M585.123 683.248L578.972 462.931C578.771 455.737 578.867 447.992 578.967 439.796C579.299 412.746 579.675 382.088 568.541 365.561C557.772 349.581 535.645 348.525 502.771 362.424C471.168 375.785 438.352 396.061 406.616 415.669C385.929 428.451 364.539 441.666 343.782 452.772C281.394 486.15 233.077 502.744 191.727 504.994C174.573 505.927 158.829 504.46 144.75 500.628C140.482 499.467 136.371 498.088 132.417 496.494C113.768 488.974 99.1434 476.776 88.9498 460.244C79.5032 444.92 73.6178 425.315 70.9633 400.308C68.8429 380.34 68.7808 357.205 70.7693 327.502C71.8181 311.827 73.3244 295.653 74.7812 280.012C78.0762 244.616 81.4841 208.016 79.8589 174.545C77.3643 123.207 62.4444 79.4191 36.7125 47.9135C7.33412 11.9411 -31.7462 -5.21834 -73.3284 -0.401622C-113.587 4.26153 -171.337 37.8013 -203.001 100.425L-203.134 100.384C-188.981 72.3927 -168.244 47.825 -143.166 29.3364C-120.491 12.6195 -95.6674 1.98471 -73.2659 -0.609124C-51.3121 -3.1512 -30.2043 0.300299 -10.5331 9.65172C7.13105 18.0472 23.0744 30.8626 36.8563 47.7373C49.5888 63.3266 59.7475 82.0505 67.0512 103.39C74.4156 124.909 78.7826 148.813 80.0281 174.438C81.6552 207.921 78.2473 244.531 74.9509 279.935C73.4951 295.574 71.9898 311.746 70.9407 327.419C68.0382 370.759 67.4812 425.001 89.1033 460.073C113.9 500.293 158.635 506.586 191.797 504.782C233.126 502.535 281.422 485.947 343.786 452.58C364.535 441.48 385.923 428.264 406.607 415.486C438.349 395.875 471.173 375.595 502.792 362.226C535.722 348.303 557.895 349.367 568.69 365.389C573.675 372.789 576.794 383.602 578.224 398.45C579.482 411.521 579.307 425.849 579.137 439.704C579.037 447.9 578.942 455.639 579.142 462.832L585.294 683.148L585.123 683.248Z" fill="#FFE492"/>
</g>
<g id="Group_18">
<path id="Vector_18" d="M591.618 668.208C592.315 607.52 591.68 557.948 589.62 512.205C588.628 489.985 587.26 468.009 585.556 446.886C585.041 440.496 584.729 433.764 584.399 426.636C583.571 408.72 582.714 390.195 578.476 375.466C576.206 367.546 573.238 361.51 569.401 357.012C557.668 343.114 535.358 344.119 503.092 360.003C486.401 368.206 469.942 378.232 456.043 386.956C441.328 396.193 426.143 406.662 411.458 416.786C390.349 431.34 368.523 446.387 347.033 458.564C333.943 466.002 321.248 472.376 309.301 477.512C285.397 487.787 261.561 495.126 238.454 499.326C224.209 501.858 210.589 502.995 197.976 502.705C187.109 502.446 176.722 501.177 167.1 498.93C152.699 495.571 139.835 489.933 128.867 482.168C117.207 473.912 107.608 463.187 100.341 450.289C93.8607 438.787 89.0721 425.224 85.7036 408.82C79.4161 378.274 78.901 344.793 79.1552 319.036C79.3059 306.331 79.6935 293.438 80.068 280.97C81.1494 245.062 82.1698 211.147 78.0821 179.577C74.6774 153.973 67.8083 130.807 57.6628 110.719C49.8668 95.2809 39.8247 81.6577 27.8169 70.2259C24.9556 67.5052 21.9666 64.8816 18.9338 62.4337C5.87129 51.9045 -10.2738 42.9689 -29.0512 35.8744C-47.9625 28.681 -65.8646 25.579 -83.7794 26.3966C-93.8966 26.837 -104.532 28.9531 -115.394 32.6835C-153.74 45.8549 -189.01 75.887 -209.743 113.021L-209.901 112.953C-204.374 103.053 -197.827 93.603 -190.44 84.86C-183.424 76.5555 -175.606 68.8329 -167.202 61.906C-151.325 48.822 -133.396 38.6296 -115.354 32.4327C-104.476 28.6954 -93.8235 26.5768 -83.6907 26.1361C-65.7577 25.3188 -47.841 28.4224 -28.9146 35.6223C-10.1263 42.7197 6.02626 51.662 19.0976 62.1982C22.1334 64.6493 25.1238 67.2732 27.9868 69.9967C40.0047 81.4359 50.055 95.0706 57.8568 110.521C68.0094 130.623 74.884 153.809 78.2885 179.43C82.379 211.019 81.3572 244.943 80.2772 280.86C79.9014 293.328 79.5147 306.219 79.3637 318.922C79.1091 344.667 79.6245 378.132 85.9092 408.659C89.274 425.045 94.0567 438.595 100.53 450.083C114.753 475.325 137.19 491.674 167.22 498.674C176.834 500.918 187.215 502.186 198.072 502.445C210.677 502.732 224.287 501.597 238.521 499.067C261.614 494.87 285.435 487.536 309.324 477.266C321.263 472.135 333.95 465.763 347.03 458.331C368.508 446.161 390.329 431.116 411.43 416.568C426.118 406.443 441.307 395.969 456.027 386.73C469.933 378 486.4 367.972 503.103 359.763C517.469 352.691 530.054 348.529 540.51 347.392C553.354 345.995 563.135 349.157 569.578 356.789C573.426 361.302 576.404 367.355 578.679 375.293C582.923 390.044 583.781 408.58 584.611 426.508C584.941 433.634 585.253 440.366 585.767 446.751C587.473 467.877 588.84 489.856 589.832 512.079C591.892 557.827 592.526 607.404 591.83 668.096L591.618 668.208Z" fill="#FFE492"/>
</g>
<g id="Group_19">
<path id="Vector_19" d="M598.117 653.163C601.14 592.079 601.238 540.301 598.413 494.873C597.051 472.687 594.942 451.143 592.144 430.84C591.401 425.453 590.786 419.898 590.134 414.017C588.179 396.406 586.158 378.196 580.604 364.465C577.812 357.509 574.431 352.275 570.264 348.46C554.313 333.851 525.109 345.354 503.418 357.575C488.066 366.201 472.834 376.532 457.283 387.245C443.672 396.622 430.098 407 415.728 417.985C394.399 434.293 372.343 451.155 350.288 464.351C337.174 472.237 324.38 478.658 312.261 483.437C289.686 492.342 267.05 497.867 243.06 500.332C229.634 501.709 216.567 501.738 204.224 500.413C193.818 499.277 183.904 497.185 174.758 494.189C161.148 489.739 148.986 483.077 138.606 474.389C127.706 465.263 118.664 453.803 111.732 440.328C105.658 428.523 101.009 414.661 97.5172 397.954C91.1585 367.645 88.8443 335.334 87.5405 310.569C87.058 301.402 86.67 292.205 86.2951 283.307C84.8017 247.877 83.3928 214.409 76.3075 184.609C71.0127 162.337 62.5563 142.421 51.1755 125.418C42.5646 112.552 32.0154 101.798 18.9274 92.5391C15.9059 90.4043 12.7657 88.3669 9.59564 86.4833C-4.33858 78.2305 -20.5468 72.1316 -40.2858 65.0137C-54.4868 59.8269 -73.4509 53.7949 -94.2304 53.1893C-104.052 52.863 -114.332 54.1408 -124.786 56.9824C-161.593 66.992 -195.872 92.6486 -216.486 125.617L-216.661 125.511C-211.195 116.769 -204.773 108.483 -197.575 100.881C-190.716 93.6375 -183.111 86.9725 -174.969 81.0645C-159.498 69.8419 -142.124 61.4081 -124.724 56.6774C-114.251 53.8296 -103.951 52.5501 -94.1128 52.8765C-73.3127 53.4807 -54.3347 59.5187 -40.1243 64.7082C-20.3785 71.8279 -4.16487 77.9283 9.77916 86.1861C12.9509 88.0724 16.0938 90.1106 19.1194 92.2465C32.2193 101.515 42.7789 112.28 51.3997 125.16C62.792 142.18 71.2559 162.111 76.5566 184.406C83.6463 214.228 85.0581 247.706 86.5508 283.15C86.9253 292.045 87.3132 301.242 87.7968 310.408C89.102 335.163 91.4144 367.462 97.7683 397.756C101.255 414.446 105.899 428.292 111.966 440.083C125.596 466.58 146.778 484.68 174.918 493.88C184.057 496.872 193.96 498.964 204.357 500.097C216.688 501.421 229.744 501.394 243.157 500.016C267.127 497.555 289.744 492.034 312.3 483.138C324.404 478.364 337.181 471.951 350.281 464.074C372.316 450.889 394.363 434.033 415.683 417.734C430.058 406.744 443.635 396.364 457.255 386.982C472.813 376.263 488.051 365.928 503.419 357.293C517.481 349.37 529.986 344.321 540.59 342.281C553.447 339.81 563.501 341.794 570.472 348.177C574.652 352.006 578.046 357.258 580.847 364.235C586.409 377.991 588.432 396.218 590.388 413.843C591.04 419.721 591.658 425.275 592.399 430.659C595.198 450.97 597.306 472.521 598.67 494.713C601.493 540.153 601.397 591.94 598.372 653.038L598.117 653.163Z" fill="#FFE492"/>
</g>
<g id="Group_20">
<path id="Vector_20" d="M604.614 638.119C609.984 575.803 610.832 523.278 607.204 477.544C605.47 455.391 602.618 434.282 598.73 414.797C597.9 410.632 597.099 406.234 596.325 401.982C593.128 384.415 589.823 366.251 582.735 353.468C579.422 347.438 575.627 343.002 571.131 339.911C553.877 328.042 524.962 341.646 503.746 355.147C489.388 364.251 475.022 375.089 461.128 385.572L458.526 387.535C445.915 397.043 433.192 407.773 419.721 419.135C398.269 437.226 376.09 455.932 353.543 470.14C340.387 478.484 327.493 484.952 315.218 489.365C293.818 497.059 272.35 500.863 247.661 501.337C234.894 501.582 222.382 500.5 210.47 498.119C200.526 496.104 191.086 493.187 182.413 489.445C156.147 478.132 136.199 458.255 123.12 430.367C117.467 418.311 112.955 404.156 109.331 387.088C103.172 358.255 99.3311 329.296 95.926 302.106C95.4685 298.461 95.0227 294.842 94.5797 291.252C89.98 254.011 85.6367 218.835 74.5339 189.649C67.2856 170.595 57.2423 153.932 44.6861 140.123C35.4672 129.985 24.1329 121.72 10.0382 114.856C6.85979 113.312 3.5695 111.859 0.25769 110.536C-8.08168 107.225 -17.3338 104.538 -27.1299 101.693C-34.9981 99.4081 -43.1335 97.0457 -51.5238 94.1578C-67.6852 88.4929 -86.0027 82.0744 -104.687 79.9885C-114.328 78.9129 -124.252 79.3503 -134.185 81.2897C-169.437 88.1742 -202.728 109.459 -223.238 138.227L-223.42 138.069C-218.012 130.484 -211.717 123.362 -204.709 116.903C-198.007 110.725 -190.615 105.113 -182.737 100.224C-167.671 90.8722 -150.851 84.2017 -134.096 80.9296C-124.141 78.9848 -114.196 78.546 -104.537 79.6244C-85.8336 81.7131 -67.5077 88.1362 -51.3394 93.803C-42.9535 96.6873 -34.8191 99.0518 -26.9537 101.336C-17.1535 104.182 -7.89869 106.87 0.447791 110.185C3.76129 111.511 7.05564 112.965 10.2367 114.509C24.3494 121.38 35.6969 129.656 44.9284 139.809C57.4998 153.635 67.5536 170.316 74.8101 189.391C85.9232 218.603 90.2689 253.796 94.8696 291.053C95.3127 294.643 95.7609 298.26 96.216 301.907C99.6203 329.092 103.459 358.044 109.616 386.867C113.237 403.916 117.744 418.057 123.391 430.098C136.452 457.951 156.375 477.801 182.606 489.099C191.27 492.837 200.7 495.751 210.634 497.763C222.533 500.14 235.034 501.221 247.786 500.978C272.45 500.504 293.893 496.705 315.265 489.021C327.514 484.618 340.383 478.161 353.517 469.832C376.035 455.642 398.202 436.946 419.64 418.865C433.118 407.498 445.848 396.763 458.468 387.248L461.07 385.286C474.971 374.798 489.345 363.953 503.719 354.839C525.003 341.294 554.013 327.653 571.348 339.577C575.864 342.683 579.675 347.134 582.999 353.188C590.102 365.998 593.412 384.182 596.611 401.768C597.385 406.02 598.186 410.418 599.015 414.581C602.905 434.075 605.757 455.196 607.493 477.361C611.122 523.114 610.274 575.658 604.902 637.994L604.614 638.119Z" fill="#FFE492"/>
</g>
<g id="Group_21">
<path id="Vector_21" d="M611.112 623.073C618.733 560.407 620.377 505.613 615.996 460.217C613.889 438.1 610.296 417.423 605.319 398.76C604.6 396.064 603.879 393.273 603.18 390.574C598.569 372.745 593.802 354.306 584.869 342.477C581.053 337.362 576.845 333.729 572.002 331.365C553.428 322.3 524.812 337.974 504.076 352.719C491.229 361.818 478.484 372.357 466.158 382.549C464.026 384.313 461.896 386.073 459.768 387.825C448.08 397.448 436.137 408.501 423.494 420.202C402 440.094 379.775 460.662 356.797 475.933C343.304 484.9 330.671 491.234 318.173 495.299C292.032 503.8 270.183 503.632 252.257 502.35C240.134 501.481 228.175 499.29 216.712 495.832C207.234 492.94 198.269 489.197 190.065 484.709C165.732 471.418 147.039 449.786 134.508 420.413C129.292 408.193 124.921 393.741 121.141 376.23C117.305 358.577 113.951 341.682 110.706 325.342C108.501 314.236 106.418 303.747 104.31 293.653C96.3413 255.498 88.4666 221.714 72.7619 194.697C63.562 178.873 51.9338 165.459 38.1991 154.83C28.3554 147.212 16.5823 141.602 1.1523 137.173C-2.17987 136.225 -5.62164 135.355 -9.07688 134.59C-14.3331 133.444 -19.9015 132.524 -25.7959 131.551C-37.1068 129.683 -49.9293 127.566 -62.7635 123.304C-67.6502 121.68 -72.5861 119.922 -77.3592 118.22C-89.6364 113.844 -102.332 109.319 -115.146 106.787C-124.557 104.929 -134.127 104.528 -143.587 105.596C-177.267 109.402 -209.569 126.318 -229.998 150.844L-230.171 150.619C-224.822 144.196 -218.654 138.241 -211.839 132.919C-205.293 127.808 -198.114 123.251 -190.505 119.376C-175.841 111.91 -159.576 107.003 -143.466 105.182C-133.983 104.111 -124.391 104.511 -114.959 106.375C-102.131 108.909 -89.431 113.437 -77.147 117.815C-72.3752 119.516 -67.4394 121.274 -62.554 122.898C-49.732 127.156 -36.92 129.273 -25.6144 131.14C-19.7173 132.113 -14.1476 133.034 -8.88596 134.182C-5.42665 134.947 -1.98219 135.818 1.35404 136.768C16.8067 141.2 28.5957 146.821 38.4567 154.451C52.2077 165.094 63.8525 178.524 73.0633 194.369C80.1579 206.572 86.2135 221.235 91.5776 239.194C96.3801 255.27 100.272 272.489 104.639 293.398C106.746 303.494 108.829 313.983 111.035 325.089C114.279 341.427 117.634 358.322 121.468 375.972C125.244 393.466 129.611 407.903 134.819 420.109C147.333 449.442 165.999 471.044 190.298 484.317C198.492 488.799 207.447 492.537 216.914 495.427C228.363 498.881 240.309 501.07 252.419 501.936C270.321 503.219 292.141 503.385 318.236 494.899C330.7 490.846 343.3 484.529 356.758 475.584C379.696 460.34 401.904 439.788 423.381 419.912C436.032 408.204 447.981 397.145 459.682 387.512C461.809 385.761 463.938 384 466.069 382.238C478.403 372.038 491.156 361.493 504.02 352.382C517.511 342.789 529.87 335.949 540.755 332.051C553.647 327.433 564.235 327.07 572.225 330.972C577.091 333.347 581.32 336.998 585.152 342.133C594.109 353.993 598.882 372.455 603.499 390.307C604.198 393.006 604.919 395.797 605.637 398.49C610.619 417.168 614.213 437.864 616.322 459.998C618.648 484.103 619.292 511.021 618.235 540.003C617.302 565.619 615.013 593.525 611.437 622.944L611.112 623.073Z" fill="#FFE492"/>
</g>
<g id="Group_22">
<path id="Vector_22" d="M617.614 608.022C627.572 544.136 629.987 488.577 624.79 442.888C622.309 420.805 617.976 400.563 611.911 382.72C611.622 381.87 611.334 381.021 611.045 380.169C604.747 361.596 598.235 342.39 587.009 331.486C582.66 327.261 578.038 324.427 572.88 322.819C552.984 316.621 524.665 334.337 504.414 350.288C492.53 359.609 480.841 370.19 469.539 380.422C466.744 382.953 463.854 385.569 461.021 388.112C450.228 397.798 439.057 409.11 427.231 421.088C405.717 442.876 383.473 465.404 360.059 481.722C346.513 491.163 333.78 497.544 321.132 501.23C296.216 508.491 275.515 506.544 256.858 503.359C245.353 501.394 233.948 498.09 222.958 493.541C213.949 489.77 205.459 485.202 197.721 479.967C175.341 464.849 157.905 441.461 145.9 410.454C141.092 398.038 136.979 383.712 132.959 365.369C125.279 330.588 119.032 305.863 112.705 285.2C100.119 244.106 87.6474 218.549 71.0039 199.747C59.8611 187.16 46.6471 176.997 31.727 169.538C21.3752 164.364 9.20971 161.264 -7.71995 159.491C-11.1921 159.134 -14.7839 158.848 -18.3978 158.645C-21.8163 158.462 -25.3308 158.362 -29.0518 158.254C-42.7918 157.859 -58.3661 157.411 -73.9949 152.449C-82.2329 149.834 -90.3689 146.598 -98.2372 143.471C-107.18 139.917 -116.426 136.24 -125.602 133.585C-134.802 130.924 -144.018 129.684 -152.987 129.904C-185.069 130.687 -216.388 143.237 -236.764 163.472L-236.906 163.163C-231.613 157.905 -225.573 153.117 -218.953 148.931C-212.562 144.889 -205.601 141.389 -198.259 138.524C-183.998 132.958 -168.285 129.814 -152.824 129.437C-143.831 129.218 -134.594 130.46 -125.372 133.127C-116.188 135.784 -106.937 139.462 -97.9914 143.019C-90.1258 146.146 -81.9938 149.38 -73.7626 151.993C-58.1612 156.946 -42.6038 157.394 -28.8794 157.789C-25.156 157.895 -21.6397 157.998 -18.2189 158.18C-14.601 158.384 -11.0064 158.671 -7.53056 159.026C9.42444 160.804 21.6112 163.908 31.9844 169.094C46.9254 176.564 60.1584 186.741 71.3168 199.346C87.9834 218.173 100.468 243.756 113.065 284.887C119.395 305.556 125.644 330.289 133.326 365.08C137.344 383.408 141.452 397.719 146.254 410.122C158.243 441.086 175.653 464.441 198 479.536C205.728 484.764 214.209 489.325 223.204 493.092C234.182 497.636 245.572 500.935 257.062 502.898C275.692 506.078 296.356 508.024 321.215 500.781C333.815 497.109 346.504 490.749 360.003 481.341C383.366 465.057 405.588 442.553 427.077 420.79C438.912 408.804 450.091 397.483 460.899 387.783C463.731 385.242 466.622 382.626 469.416 380.095C480.728 369.854 492.424 359.266 504.329 349.929C517.545 339.518 529.832 331.783 540.849 326.935C553.754 321.256 564.608 319.723 573.109 322.368C578.296 323.983 582.942 326.833 587.312 331.078C598.575 342.02 605.097 361.252 611.402 379.852C611.691 380.704 611.98 381.556 612.268 382.403C618.34 400.267 622.679 420.533 625.162 442.64C630.363 488.37 627.947 543.972 617.981 607.902L617.614 608.022Z" fill="#FFE492"/>
</g>
<g id="Group_23">
<path id="Vector_23" d="M263.7 504.981C262.941 504.774 262.193 504.568 261.46 504.362C250.555 501.315 239.701 496.903 229.206 491.245C220.67 486.596 212.655 481.204 205.38 475.222C194.982 466.684 185.623 455.934 177.56 443.27C169.773 431.041 162.956 416.65 157.297 400.493C151.751 384.664 147.694 367.603 144.778 354.507C137.923 323.936 129.957 297.775 121.101 276.749C106.758 242.696 90.284 219.832 69.2526 204.796C56.5647 195.725 41.6191 188.694 25.9879 184.44C25.7457 184.374 25.5049 184.308 25.2616 184.245C11.7991 180.659 -2.80676 180.952 -16.5834 181.803C-20.1729 182.032 -23.9162 182.33 -27.7114 182.693C-29.7946 182.899 -31.8905 183.125 -34.1081 183.363C-49.7533 185.056 -67.4856 186.972 -85.2238 181.59C-96.0261 178.312 -106.366 173.558 -116.364 168.96C-122.82 165.99 -129.496 162.921 -136.054 160.379C-145.069 156.886 -153.927 154.808 -162.385 154.207C-192.841 152.037 -223.177 160.223 -243.538 176.104L-243.626 175.698C-233.183 167.554 -220.527 161.486 -206.007 157.661C-192.141 154.01 -176.985 152.636 -162.18 153.691C-153.7 154.296 -144.817 156.376 -135.782 159.879C-129.217 162.422 -122.539 165.495 -116.081 168.465C-106.089 173.062 -95.7557 177.814 -84.9673 181.086C-67.2752 186.455 -49.5725 184.54 -33.9541 182.852C-31.7341 182.612 -29.6381 182.386 -27.5536 182.18C-23.7557 181.818 -20.0087 181.519 -16.4166 181.291C-2.61655 180.439 12.014 180.146 25.51 183.738C41.4314 187.977 56.664 195.095 69.568 204.322C80.4217 212.083 89.8934 221.737 98.5214 233.834C106.83 245.486 114.345 259.4 121.492 276.374C130.355 297.416 138.327 323.597 145.186 354.188C148.098 367.275 152.152 384.324 157.693 400.136C169.176 432.92 185.33 458.025 205.705 474.757C212.969 480.732 220.974 486.116 229.497 490.76C239.98 496.409 250.817 500.817 261.709 503.858C278.752 508.617 299.031 513.151 324.197 506.657C336.934 503.37 349.708 496.971 363.249 487.095C387.03 469.751 409.225 445.224 430.692 421.503C441.734 409.302 452.163 397.777 462.118 388.052C465.307 384.937 468.561 381.719 471.709 378.607C482.344 368.091 493.34 357.219 504.634 347.478C517.584 336.259 529.8 327.625 540.941 321.815C553.86 315.08 564.977 312.371 573.986 313.763C579.547 314.621 584.61 316.668 589.466 320.022C602.449 328.986 610.795 347.034 618.895 366.313C625.957 383.122 631.181 403.512 633.999 425.279C637.158 449.398 637.763 476.849 635.797 506.868C634.045 533.613 630.252 562.544 624.522 592.861L624.112 592.981C636.416 527.875 639.603 471.549 633.58 425.57C630.767 403.834 625.553 383.475 618.5 366.694C610.414 347.449 602.084 329.435 589.15 320.503C584.32 317.168 579.285 315.133 573.758 314.28C557.204 311.725 532.696 323.65 504.75 347.861C493.477 357.585 482.491 368.448 471.865 378.952C468.717 382.067 465.459 385.286 462.27 388.402C452.334 398.108 441.912 409.624 430.882 421.814C420.349 433.453 409.458 445.489 398.175 456.838C385.384 469.704 373.984 479.738 363.319 487.517C349.718 497.436 336.887 503.864 324.089 507.167C312.802 510.08 301.749 511.027 290.295 510.067C280.6 509.245 271.51 507.106 263.7 504.981Z" fill="#FFE492"/>
</g>
<g id="Group_24">
<path id="Vector_24" d="M284.888 511.907C277.989 510.03 271.667 507.605 266.048 505.363C255.716 501.241 245.417 495.718 235.439 488.947C227.381 483.423 219.839 477.209 213.024 470.472C194.351 452.051 179.846 425.899 168.678 390.528C163.807 375.104 160.032 358.907 156.586 343.642C149.744 313.577 140.628 288.228 129.488 268.295C113.105 238.98 93.4073 220.404 67.4976 209.839C52.7348 203.818 35.893 200.051 18.7922 198.943C4.4789 198.014 -10.9135 200.986 -25.4537 204.106C-29.0954 204.895 -32.9911 205.779 -37.0303 206.732C-38.041 206.973 -39.0626 207.221 -40.0969 207.469C-57.0949 211.573 -76.3284 216.216 -95.4965 210.999C-95.8199 210.911 -96.141 210.821 -96.4641 210.727C-109.335 206.999 -121.197 200.604 -132.67 194.417C-137.218 191.964 -141.922 189.429 -146.518 187.162C-155.496 182.737 -163.763 179.901 -171.796 178.497C-201.012 173.392 -229.639 177.117 -250.336 188.725L-250.341 188.216C-240.11 182.479 -227.458 178.523 -213.757 176.776C-200.28 175.058 -185.683 175.458 -171.542 177.93C-163.486 179.338 -155.197 182.179 -146.2 186.614C-141.599 188.882 -136.894 191.42 -132.344 193.871C-120.881 200.051 -109.03 206.441 -96.1838 210.162C-76.7655 215.79 -57.2169 211.068 -39.9728 206.903C-38.9398 206.655 -37.9169 206.408 -36.9052 206.164C-32.8623 205.21 -28.9651 204.326 -25.3208 203.538C-10.7556 200.411 4.66385 197.437 19.0164 198.367C36.1435 199.478 53.0134 203.251 67.8009 209.28C80.641 214.515 91.8167 221.668 101.968 231.143C112.422 240.902 121.561 252.905 129.907 267.842C141.06 287.801 150.188 313.182 157.038 343.276C160.482 358.536 164.254 374.723 169.122 390.132C180.275 425.456 194.757 451.569 213.4 469.961C220.206 476.686 227.738 482.893 235.784 488.409C245.748 495.171 256.032 500.688 266.35 504.802C283.711 511.726 302.708 518.026 327.172 512.517C340.046 509.617 352.907 503.179 366.488 492.833C390.683 474.405 413.812 446.582 434.22 422.033C444.487 409.681 454.186 398.015 463.325 388.307C466.623 384.805 469.994 381.174 473.253 377.664C483.451 366.679 493.995 355.322 504.93 345.01C517.628 332.987 529.774 323.454 541.03 316.676C553.957 308.893 565.339 305.01 574.854 305.139C580.802 305.219 586.283 306.466 591.611 308.944C606.496 315.872 616.704 332.866 625.517 350.201C633.656 366.206 639.642 386.158 642.831 407.898C646.408 432.022 646.993 459.741 644.573 490.28C642.407 517.59 637.861 547.034 631.06 577.8L630.614 577.908C645.07 512.512 649.137 453.836 642.375 408.223C639.193 386.524 633.217 366.61 625.095 350.637C616.303 333.343 606.122 316.39 591.3 309.491C586.004 307.026 580.556 305.789 574.647 305.708C557.077 305.469 532.376 319.565 505.092 345.401C494.178 355.691 483.645 367.038 473.458 378.011C470.197 381.524 466.826 385.154 463.526 388.66C454.407 398.346 444.718 410.001 434.46 422.339C414.02 446.925 390.853 474.794 366.579 493.284C352.922 503.685 339.99 510.16 327.043 513.077C315.809 515.607 304.905 515.874 293.709 513.889C290.675 513.365 287.734 512.682 284.888 511.907Z" fill="#FFE492"/>
</g>
<g id="Group_25">
<path id="Vector_25" d="M297.424 517.825C297.325 517.798 297.228 517.771 297.129 517.745C287.397 515.054 278.711 510.649 270.649 506.366C260.864 501.171 251.122 494.536 241.687 486.649C234.107 480.255 227.041 473.215 220.683 465.725C203.818 445.889 190.915 418.831 180.075 380.568C176.17 366.791 172.84 352.194 169.617 338.08C169.215 336.313 168.811 334.548 168.406 332.783C161.463 302.697 151.197 278.158 137.893 259.848C119.674 234.778 96.08 220.07 65.7621 214.885C49.1377 212.043 30.6654 211.614 12.3423 213.645C-2.11555 215.248 -16.717 220.159 -34.3045 226.413C-37.8735 227.689 -41.696 229.074 -46.3325 230.775L-46.5918 230.871C-55.5536 234.185 -65.7106 237.941 -76.0783 240.077C-87.9853 242.53 -98.326 242.456 -107.693 239.874C-122.294 235.837 -135.197 227.668 -147.673 219.766C-150.729 217.83 -153.892 215.828 -156.974 213.957C-165.816 208.594 -173.74 204.945 -181.199 202.801C-208.665 194.909 -236.343 194.384 -257.135 201.357L-257.039 200.758C-246.854 197.342 -234.563 195.665 -221.493 195.907C-208.399 196.15 -194.36 198.323 -180.894 202.192C-173.413 204.342 -165.469 207.999 -156.608 213.374C-153.523 215.246 -150.361 217.247 -147.303 219.184C-134.842 227.075 -121.956 235.235 -107.39 239.262C-107.325 239.28 -107.258 239.298 -107.193 239.315C-86.3189 244.997 -64.253 236.838 -46.5106 230.277L-46.2501 230.181C-41.6112 228.479 -37.7887 227.094 -34.2183 225.818C-16.6011 219.554 -1.97365 214.634 12.5291 213.026C30.8839 210.991 49.3863 211.421 66.0388 214.268C80.8746 216.807 93.7554 221.456 105.418 228.486C117.986 236.062 128.753 246.151 138.331 259.334C151.661 277.678 161.946 302.257 168.9 332.392C169.304 334.157 169.708 335.924 170.11 337.691C173.331 351.8 176.66 366.392 180.561 380.158C191.386 418.374 204.27 445.394 221.106 465.197C227.455 472.677 234.512 479.706 242.08 486.092C251.502 493.968 261.231 500.593 271 505.779C288.495 515.073 306.186 523.031 330.155 518.408C343.163 515.899 356.11 509.421 369.732 498.603C394.341 479.061 417.367 448.969 437.685 422.417C447.196 409.987 456.181 398.244 464.539 388.597C467.756 384.885 471.044 381.035 474.225 377.311C484.171 365.668 494.454 353.631 505.234 342.576C517.695 329.745 529.771 319.311 541.124 311.564C554.065 302.736 565.707 297.683 575.724 296.549C581.936 295.847 587.719 296.254 593.389 297.798C593.512 297.831 593.635 297.865 593.758 297.901C611.315 302.837 623.494 319.849 632.145 334.119C641.358 349.322 648.11 368.834 651.671 390.546C655.666 414.677 656.233 442.662 653.354 473.724C650.77 501.598 645.471 531.558 637.601 562.773L637.119 562.866C648.829 516.42 660.769 448.886 651.171 390.912C647.62 369.249 640.883 349.783 631.692 334.616C623.068 320.386 610.928 303.423 593.455 298.512C587.704 296.889 581.844 296.456 575.539 297.17C556.978 299.272 532.082 315.54 505.436 342.975C494.68 354.005 484.409 366.029 474.474 377.659C471.292 381.385 468.001 385.236 464.784 388.95C456.446 398.573 447.472 410.3 437.972 422.718C417.619 449.318 394.549 479.467 369.844 499.085C356.131 509.976 343.097 516.496 330.002 519.022C318.904 521.16 308.242 520.769 297.424 517.825Z" fill="#FFE492"/>
</g>
<g id="Group_26">
<path id="Vector_26" d="M306.834 523.645C304.734 523.074 302.638 522.388 300.541 521.585C291.363 518.076 283.336 512.857 275.24 507.366C265.855 501.002 256.92 493.473 247.925 484.35C240.828 477.09 234.236 469.227 228.333 460.976C213.347 440.065 201.977 412.193 191.465 370.605C188.854 360.277 186.449 349.536 184.124 339.147C182.858 333.493 181.551 327.645 180.222 321.92C173.133 291.605 161.717 267.879 146.292 251.4C125.913 229.626 99.0042 219.33 64.0261 219.924C45.5461 220.238 25.4433 223.148 5.8929 228.337C-9.81247 232.505 -25.4525 240.106 -42.0113 248.153L-43.1562 248.709C-45.7454 249.972 -48.3657 251.254 -51.0178 252.55C-52.5459 253.299 -54.0838 254.051 -55.6352 254.809C-65.3251 259.572 -75.6723 264.474 -86.2717 267.531C-98.5779 271.079 -109.258 271.565 -118.926 269.017C-135.018 264.771 -148.6 254.7 -161.731 244.955C-163.604 243.563 -165.544 242.126 -167.435 240.748C-176.298 234.285 -183.661 229.95 -190.608 227.101C-216.244 216.589 -242.971 211.805 -263.941 213.976L-263.737 213.304C-242.712 211.127 -215.928 215.918 -190.248 226.449C-183.282 229.306 -175.9 233.652 -167.019 240.127C-165.128 241.508 -163.188 242.945 -161.314 244.337C-148.344 253.962 -134.936 263.909 -119.114 268.216C-118.943 268.262 -118.773 268.308 -118.6 268.353C-98.0588 273.768 -77.0807 264.744 -55.6055 254.193C-54.0541 253.434 -52.5162 252.682 -50.9881 251.933C-48.3351 250.635 -45.7171 249.355 -43.1255 248.09L-41.9806 247.534C-25.3938 239.474 -9.72713 231.86 6.02958 227.677C25.6161 222.477 45.7534 219.563 64.2657 219.248C99.3321 218.653 126.312 228.978 146.747 250.811C162.209 267.333 173.652 291.112 180.757 321.494C182.086 327.221 183.395 333.067 184.66 338.724C186.984 349.109 189.387 359.848 191.998 370.169C202.496 411.709 213.851 439.543 228.81 460.418C234.705 468.656 241.287 476.509 248.374 483.757C257.356 492.868 266.277 500.386 275.649 506.739C289.875 516.386 307.578 528.394 333.14 524.279C346.282 522.164 359.312 515.647 372.976 504.354C398.004 483.669 420.888 451.224 441.078 422.601C449.849 410.165 458.134 398.42 465.749 388.873C468.716 385.154 471.753 381.298 474.69 377.568C484.541 365.058 494.727 352.125 505.532 340.127C517.775 326.482 529.78 315.147 541.214 306.437C554.171 296.567 566.072 290.347 576.588 287.948C583.337 286.408 589.653 286.046 595.899 286.841C604.264 287.905 612.042 291.319 619.681 297.268C626.144 302.304 632.388 309.091 638.769 318.019C649.059 332.418 656.575 351.492 660.506 373.178C664.922 397.315 665.468 425.569 662.131 457.152C659.126 485.593 653.074 516.067 644.139 547.731L643.624 547.803C662.485 480.954 668.289 419.081 659.966 373.582C656.046 351.955 648.55 332.935 638.29 318.579C624.542 299.343 610.983 289.47 595.612 287.513C589.409 286.723 583.136 287.082 576.435 288.61C551.417 294.315 524.204 319.992 505.782 340.526C495.004 352.494 484.83 365.413 474.991 377.906C472.052 381.638 469.013 385.496 466.045 389.218C458.453 398.736 450.179 410.468 441.419 422.888C421.185 451.573 398.253 484.086 373.11 504.865C359.338 516.247 346.204 522.816 332.957 524.948C323.979 526.393 315.373 525.97 306.834 523.645Z" fill="#FFE492"/>
</g>
<g id="Group_27">
<path id="Vector_27" d="M314.586 529.491C300.277 525.596 289.256 516.308 279.827 508.362C270.956 500.888 262.56 492.28 254.158 482.047C247.545 473.928 241.428 465.241 235.978 456.224C219.63 429.216 210.393 394.324 202.849 360.64C201.308 353.763 199.809 346.698 198.361 339.867C196.35 330.381 194.27 320.573 192.032 311.057C184.774 280.416 172.211 257.501 154.693 242.949C132.03 224.127 101.805 218.241 62.2901 224.955C41.9447 228.412 20.2127 234.66 -0.557443 243.024C-16.5762 249.472 -32.088 258.897 -48.5098 268.875C-49.6734 269.581 -50.8404 270.291 -52.0114 271L-52.6475 271.387C-56.6412 273.816 -60.77 276.326 -64.9402 278.838C-74.9488 284.893 -85.7149 291.043 -96.6161 295.013C-109.27 299.621 -120.243 300.65 -130.164 298.158C-147.579 293.786 -161.555 281.684 -175.07 269.981C-176.017 269.161 -176.96 268.344 -177.901 267.535C-186.826 259.842 -193.649 254.865 -200.022 251.394C-223.708 238.499 -249.487 229.455 -270.751 226.581L-270.441 225.858C-249.141 228.734 -223.323 237.791 -199.606 250.704C-193.215 254.184 -186.377 259.173 -177.436 266.879C-176.496 267.688 -175.553 268.505 -174.605 269.327C-161.116 281.007 -147.164 293.082 -129.818 297.442C-108.273 302.852 -85.0487 290.349 -64.9714 278.205C-60.8012 275.692 -56.6724 273.182 -52.6797 270.756L-52.0436 270.369C-50.8716 269.658 -49.7056 268.95 -48.542 268.243C-32.0916 258.248 -16.5534 248.807 -0.480666 242.336C20.3276 233.957 42.0998 227.7 62.4807 224.237C81.2142 221.054 97.5064 220.707 112.287 223.174C128.773 225.928 143.195 232.36 155.152 242.292C172.726 256.889 185.327 279.87 192.606 310.596C194.847 320.117 196.927 329.927 198.938 339.416C200.387 346.247 201.884 353.308 203.424 360.183C210.962 393.831 220.185 428.685 236.504 455.642C241.947 464.646 248.055 473.322 254.659 481.429C263.048 491.646 271.43 500.242 280.288 507.706C293.889 519.166 310.815 533.429 336.111 530.154C349.386 528.434 362.501 521.877 376.205 510.109C401.662 488.247 424.361 453.373 444.39 422.601C452.438 410.238 460.038 398.561 466.946 389.153C469.502 385.673 472.12 382.071 474.653 378.588C484.56 364.962 494.807 350.871 505.818 337.682C517.856 323.213 529.792 310.973 541.292 301.306C554.267 290.397 566.428 283.009 577.439 279.347C584.589 276.97 591.321 275.805 598.026 275.785C607.058 275.76 615.844 278.235 624.14 283.141C631.406 287.437 638.552 293.755 645.378 301.92C656.744 315.514 665.026 334.149 669.331 355.809C674.167 379.954 674.695 408.474 670.898 440.58C667.469 469.586 660.663 500.576 650.667 532.69L650.122 532.74C671.303 464.695 677.92 402.017 668.753 356.253C664.461 334.664 656.206 316.09 644.88 302.541C630.197 284.979 614.786 276.463 597.764 276.512C591.109 276.532 584.423 277.688 577.325 280.047C551.128 288.76 524.144 316.412 506.119 338.077C495.136 351.231 484.903 365.303 475.009 378.911C472.476 382.395 469.855 385.998 467.298 389.482C460.412 398.859 452.821 410.521 444.784 422.869C435.149 437.672 424.229 454.45 412.794 469.854C399.693 487.503 387.777 500.846 376.367 510.646C369.769 516.313 363.154 520.863 356.706 524.173C349.772 527.731 342.772 529.988 335.902 530.877C328.041 531.896 320.984 531.232 314.586 529.491Z" fill="#FFE492"/>
</g>
<g id="Group_28">
<path id="Vector_28" d="M321.267 535.408C316.537 534.121 311.922 532.078 307.371 529.267C298.407 523.733 290.98 516.096 284.425 509.361C276.165 500.871 268.082 490.905 260.404 479.745C254.278 470.777 248.635 461.265 243.636 451.471C229.277 423.382 221.83 389.204 214.245 350.676C213.571 347.252 212.893 343.762 212.238 340.385C209.658 327.094 206.99 313.351 203.853 300.197C196.413 269.171 182.703 247.069 163.103 234.503C138.381 218.653 103.881 217.132 60.5665 229.988C38.3398 236.585 14.9782 246.169 -6.99348 257.707C-23.5369 266.395 -39.1969 277.684 -55.777 289.637C-57.4617 290.852 -59.1525 292.07 -60.8517 293.292C-65.0829 296.339 -69.6333 299.607 -74.2305 302.867C-83.8849 309.731 -95.3237 317.433 -106.946 322.494C-119.957 328.16 -131.224 329.733 -141.389 327.302C-159.997 322.855 -174.147 308.616 -187.831 294.847L-188.352 294.323C-195.053 287.583 -202.244 280.659 -209.421 275.689C-231.299 260.543 -255.492 247.577 -277.54 239.18L-277.133 238.426C-255.061 246.831 -230.846 259.808 -208.949 274.968C-201.751 279.953 -194.547 286.887 -187.836 293.637L-187.315 294.161C-173.66 307.899 -159.537 322.106 -141.019 326.533C-119.634 331.645 -96.3243 317.872 -74.3202 302.224C-69.7241 298.967 -65.1763 295.698 -60.9461 292.653C-59.2479 291.433 -57.5561 290.213 -55.8724 289C-39.264 277.027 -23.5757 265.718 -6.97794 257.001C15.0359 245.439 38.4417 235.837 60.7096 229.228C81.031 223.198 99.5451 220.271 115.733 220.529C134.229 220.825 150.325 225.28 163.572 233.772C183.246 246.386 197.008 268.567 204.472 299.699C207.61 312.865 210.28 326.613 212.862 339.911C213.517 343.286 214.196 346.776 214.87 350.2C222.447 388.691 229.885 422.832 244.218 450.872C249.211 460.651 254.845 470.149 260.962 479.105C268.63 490.249 276.699 500.199 284.947 508.677C297.876 521.968 313.968 538.507 339.106 536.033C352.513 534.713 365.711 528.118 379.454 515.87C405.348 492.794 428.803 453.774 447.651 422.419C454.992 410.206 461.925 398.671 468.161 389.444C470.126 386.535 472.142 383.535 474.091 380.633C484.217 365.558 494.691 349.969 506.122 335.249C523.869 312.33 550.796 282.538 578.304 270.761C585.899 267.51 593.052 265.541 600.169 264.742C618.834 262.562 636.275 269.658 652.007 285.83C664.448 298.62 673.497 316.815 678.175 338.449C683.431 362.6 683.94 391.388 679.684 424.02C677.732 438.987 674.764 454.732 670.865 470.82C667.14 486.186 662.546 501.945 657.211 517.66L656.636 517.684C680.146 448.439 687.576 384.957 677.556 338.931C672.895 317.378 663.881 299.253 651.488 286.51C635.831 270.412 618.486 263.349 599.938 265.515C592.873 266.307 585.776 268.261 578.237 271.488C550.919 283.183 524.136 312.824 506.477 335.63C495.074 350.311 484.617 365.88 474.503 380.935C472.553 383.837 470.538 386.839 468.57 389.75C462.356 398.946 455.431 410.465 448.101 422.66C438.617 438.438 427.869 456.32 416.426 472.844C403.278 491.833 391.246 506.09 379.643 516.431C373.023 522.329 366.374 527.014 359.882 530.353C352.888 533.951 345.816 536.123 338.867 536.805C332.766 537.409 326.931 536.95 321.267 535.408Z" fill="#FFE492"/>
</g>
<g id="Group_29">
<path id="Vector_29" d="M327.169 541.344C321.499 539.801 316.067 537.065 310.777 533.105C302.204 526.691 295.194 518.01 289.009 510.351C281.223 500.709 273.695 489.636 266.636 477.436C260.995 467.626 255.827 457.29 251.279 446.712C238.756 417.624 232.833 382.913 226.559 346.168C226.249 344.35 225.939 342.53 225.627 340.709C222.702 323.637 219.679 305.983 215.66 289.335C208.031 257.889 193.175 236.598 171.504 226.051C144.285 212.803 106.375 215.819 58.8301 235.011C35.0481 244.61 9.38093 257.883 -13.4432 272.384C-30.6773 283.332 -46.6984 296.569 -63.6608 310.584C-65.6692 312.243 -67.6832 313.908 -69.7074 315.574C-73.7541 318.91 -78.5611 322.863 -83.5383 326.889C-92.7675 334.369 -104.944 343.753 -117.28 349.947C-130.644 356.658 -142.208 358.785 -152.631 356.446C-161.176 354.479 -169.471 350.006 -177.988 342.769C-185.301 336.557 -191.751 329.284 -198.826 321.109C-205.253 313.584 -212.094 305.758 -218.845 299.981C-238.842 282.868 -260.882 266.65 -284.348 251.774L-283.855 250.998C-260.374 265.882 -238.323 282.111 -218.314 299.232C-211.545 305.025 -204.695 312.864 -198.259 320.395C-186.402 334.1 -171.646 351.161 -152.243 355.626C-130.003 360.614 -106.153 344.456 -83.6938 326.25C-78.7201 322.227 -73.9154 318.276 -69.8711 314.942C-67.8469 313.276 -65.8329 311.611 -63.8269 309.954C-46.8365 295.916 -30.7874 282.656 -13.4973 271.672C9.37336 257.143 35.0902 243.844 58.9177 234.227C106.607 214.977 144.642 211.961 171.966 225.258C182.443 230.357 191.423 238.021 198.656 248.035C206.417 258.778 212.358 272.498 216.316 288.808C220.34 305.473 223.366 323.137 226.291 340.221C226.602 342.044 226.914 343.862 227.225 345.681C233.491 382.394 239.411 417.071 251.909 446.104C256.451 456.666 261.61 466.988 267.244 476.782C274.294 488.963 281.81 500.022 289.585 509.649C301.804 524.779 317.012 543.609 342.077 541.911C355.654 540.991 368.936 534.358 382.679 521.633C409.036 497.357 432.196 455.617 450.805 422.08C457.461 410.085 463.747 398.756 469.351 389.736C470.508 387.875 471.669 386.004 472.835 384.123C483.374 367.13 494.272 349.557 506.403 332.815C523.815 308.724 550.568 276.913 579.146 262.175C587.118 258.064 594.687 255.291 602.288 253.698C612.872 251.443 623.228 251.848 633.068 254.896C642.052 257.68 650.646 262.673 658.611 269.737C672.127 281.718 681.943 299.474 686.995 321.083C692.675 345.237 693.163 374.297 688.448 407.452C686.284 422.665 683.014 438.669 678.727 455.018C674.622 470.677 669.577 486.695 663.731 502.628L663.13 502.621C688.604 433.195 697.062 367.218 686.339 321.608C681.306 300.092 671.534 282.41 658.077 270.478C641.485 255.764 622.125 250.245 602.09 254.512C594.547 256.093 587.036 258.845 579.126 262.925C550.746 277.561 524.136 309.21 506.811 333.181C494.712 349.878 483.83 367.425 473.305 384.397C472.139 386.278 470.976 388.151 469.82 390.012C464.236 398.998 457.958 410.313 451.312 422.29C432.649 455.923 409.423 497.783 382.896 522.215C376.272 528.348 369.589 533.172 363.037 536.548C355.988 540.18 348.845 542.263 341.807 542.74C336.728 543.08 331.867 542.623 327.169 541.344Z" fill="#FFE492"/>
</g>
<g id="Group_30">
<path id="Vector_30" d="M332.535 547.31C326.075 545.552 320.009 542.114 314.194 536.944C305.967 529.629 299.397 519.913 293.602 511.344C286.278 500.513 279.306 488.327 272.876 475.129C267.718 464.49 263.027 453.328 258.93 441.957C248.837 413.963 244.279 381.793 239.454 347.733C238.666 342.165 237.849 336.409 237.018 330.741C234.091 310.826 231.348 294.315 227.475 278.473C219.652 246.586 203.651 226.105 179.916 217.599C150.092 206.909 108.77 214.457 57.1025 240.03C31.4344 252.736 4.09328 269.435 -19.8846 287.054C-37.9483 300.327 -54.4978 315.624 -72.0182 331.818C-74.1886 333.824 -76.3671 335.837 -78.5534 337.851C-82.4511 341.445 -87.5986 346.177 -92.8329 350.902C-114.887 370.841 -140.575 390.557 -163.863 385.584C-164.587 385.426 -165.306 385.249 -166.015 385.056C-183.735 380.233 -196.607 364.733 -209.287 347.887L-210.076 346.83C-216.331 338.434 -222.241 330.504 -228.255 324.266C-250.919 300.756 -273.766 279.901 -291.138 264.358L-290.568 263.567C-273.192 279.115 -250.338 299.975 -227.667 323.493C-221.636 329.747 -215.721 337.688 -209.457 346.093L-208.669 347.15C-195.524 364.613 -182.176 380.631 -163.456 384.713C-140.426 389.63 -114.946 370.063 -93.0557 350.274C-87.8247 345.553 -82.682 340.824 -78.7853 337.232C-76.598 335.217 -74.4219 333.205 -72.2515 331.199C-54.7034 314.98 -38.1276 299.658 -20.0063 286.343C4.02078 268.686 31.4168 251.954 57.1359 239.222C81.0064 227.407 103.032 219.341 122.603 215.245C145.058 210.546 164.495 211.05 180.371 216.739C204.229 225.288 220.312 245.87 228.172 277.906C232.05 293.773 234.795 310.3 237.726 330.232C238.559 335.901 239.374 341.659 240.164 347.228C244.984 381.253 249.537 413.392 259.612 441.33C263.703 452.688 268.387 463.832 273.537 474.455C279.957 487.636 286.919 499.803 294.232 510.617C305.712 527.594 320 548.722 345.061 547.783C358.76 547.269 372.124 540.597 385.916 527.388C412.737 501.805 435.568 457.273 453.913 421.49C459.899 409.816 465.553 398.787 470.556 390.022L470.67 389.822C481.874 370.196 493.459 349.902 506.697 330.372C518.224 313.331 529.945 298.38 541.533 285.929C554.6 271.893 567.541 261.009 579.999 253.58C588.334 248.608 596.322 245.031 604.418 242.645C626.321 236.133 647.35 239.931 665.229 253.632C672.425 259.146 678.705 266.241 683.899 274.719C689.123 283.247 693.136 293.002 695.831 303.712C701.934 327.873 702.404 357.201 697.226 390.882C692.572 421.156 683.25 454.598 670.267 487.591L669.64 487.552C697.427 416.939 706.72 350.138 695.135 304.279C689.731 282.806 679.2 265.571 664.679 254.445C646.901 240.823 626.008 237.041 604.257 243.508C596.224 245.877 588.301 249.426 580.03 254.357C556.77 268.229 531.572 294.638 507.159 330.726C493.955 350.206 482.387 370.472 471.198 390.07L471.084 390.27C466.099 399.002 460.453 410.015 454.475 421.674C436.073 457.565 413.173 502.232 386.163 527.994C379.514 534.364 372.795 539.322 366.199 542.729C359.086 546.404 351.873 548.401 344.757 548.67C340.52 548.827 336.455 548.377 332.535 547.31Z" fill="#FFE492"/>
</g>
<g id="Group_31">
<path id="Vector_31" d="M-177.486 414.161C-185.41 412.004 -192.889 407.327 -200.281 399.922C-207.626 392.565 -213.977 383.439 -219.748 374.674C-220.79 373.081 -221.82 371.493 -222.844 369.916C-227.939 362.064 -232.752 354.648 -237.663 348.555C-257.249 324.266 -276.368 302.022 -294.859 280.514L-297.922 276.949L-297.284 276.148L-294.221 279.713C-275.731 301.226 -256.608 323.47 -237.018 347.766C-232.093 353.874 -227.274 361.299 -222.173 369.161C-221.151 370.737 -220.121 372.326 -219.079 373.917C-207.233 391.908 -194.048 409.808 -174.666 413.808C-150.805 418.654 -123.518 395.242 -102.415 374.306C-97.013 368.953 -91.7109 363.596 -87.6954 359.528C-85.4809 357.286 -83.2741 355.044 -81.0731 352.808C-62.8231 334.271 -45.5852 316.762 -26.5109 301.021C-1.33515 280.247 27.7394 260.076 55.3575 244.227C80.9803 229.523 104.771 218.871 126.07 212.568C150.5 205.337 171.598 203.877 188.777 208.226C214.697 214.628 231.944 234.409 240.031 267.012C244.506 285.103 247.158 304.077 249.164 320.254C250.255 329.056 251.253 338.047 252.218 346.742C255.635 377.523 259.169 409.349 267.316 436.566C270.954 448.726 275.165 460.695 279.831 472.138C285.617 486.274 292.026 499.549 298.882 511.595C309.599 530.422 322.936 553.853 348.047 553.661C361.869 553.555 375.315 546.846 389.154 533.15C416.458 506.208 438.912 458.793 456.953 420.694C462.289 409.428 467.328 398.785 471.762 390.319C481.756 371.234 493.546 349.101 506.994 327.94C518.375 310.006 530.023 294.148 541.613 280.809C554.723 265.72 567.926 253.672 580.854 244.998C589.421 239.249 598.066 234.744 606.548 231.605C618.664 227.102 630.585 225.442 641.981 226.674C652.654 227.827 662.702 231.483 671.846 237.539C679.559 242.647 686.297 249.429 691.874 257.701C697.485 266.024 701.79 275.662 704.667 286.347C707.99 298.653 709.749 312.596 709.894 327.788C710.031 342.183 708.722 357.839 706.005 374.32C700.922 405.152 690.823 439.126 676.802 472.563L676.151 472.489C706.259 400.687 716.384 333.064 703.932 286.959C698.239 265.824 686.646 248.582 671.285 238.409C652.292 225.83 629.865 223.786 606.428 232.495C598.014 235.609 589.438 240.08 580.938 245.782C556.578 262.126 531.873 289.877 507.51 328.268C494.098 349.372 482.329 371.467 472.351 390.522C467.934 398.957 462.901 409.583 457.574 420.836C448.673 439.63 438.584 460.935 427.213 481.09C414.018 504.477 401.662 521.708 389.437 533.771C382.764 540.375 376.011 545.469 369.368 548.91C362.192 552.627 354.906 554.54 347.714 554.593C344.086 554.622 340.702 554.161 337.537 553.3C318.584 548.141 307.426 528.537 298.199 512.328C291.334 500.264 284.915 486.969 279.122 472.813C274.448 461.354 270.232 449.368 266.589 437.19C258.425 409.917 254.888 378.057 251.467 347.248C250.501 338.555 249.504 329.567 248.414 320.769C246.412 304.613 243.763 285.665 239.297 267.608C231.254 235.179 214.108 215.514 188.335 209.143C147.966 198.924 93.7521 223.026 55.3792 245.048C27.8165 260.865 -1.19813 280.992 -26.3213 301.725C-45.3387 317.419 -62.5506 334.901 -80.7723 353.409C-82.9733 355.645 -85.1815 357.886 -87.397 360.13C-91.4148 364.2 -96.7203 369.561 -102.126 374.92C-110.985 383.708 -124.337 396.378 -137.943 404.896C-144.55 409.032 -150.863 411.977 -156.708 413.652C-163.224 415.52 -169.41 415.882 -175.09 414.727C-175.896 414.565 -176.694 414.376 -177.486 414.161Z" fill="#FFE492"/>
</g>
<g id="Group_32">
<path id="Vector_32" d="M-188.961 443.258C-196.894 441.099 -204.268 436.248 -211.429 428.493C-218.845 420.467 -225.085 410.32 -230.209 401.452C-231.781 398.723 -233.335 395.967 -234.837 393.301C-239.037 385.851 -243.004 378.811 -247.072 372.839C-261.681 351.388 -276.325 330.341 -290.487 309.986C-295.172 303.253 -300.016 296.292 -304.705 289.535L-304.004 288.723C-299.314 295.481 -294.471 302.442 -289.786 309.175C-275.624 329.53 -260.978 350.579 -246.369 372.033C-242.291 378.022 -238.318 385.068 -234.113 392.529C-232.612 395.194 -231.058 397.948 -229.488 400.676C-218.858 419.063 -205.844 439.006 -185.878 442.896C-161.346 447.634 -133.39 421.569 -111.774 398.333C-106.235 392.381 -100.759 386.381 -96.6072 381.82C-94.4758 379.479 -92.3508 377.139 -90.2302 374.804C-71.1612 353.805 -53.1508 333.972 -33.0168 315.698C-6.8305 291.931 23.9233 268.326 53.5764 249.231C94.8016 222.782 153.179 192.723 197.177 199.716C225.195 204.087 243.603 223.064 251.886 256.12C255.604 270.978 258.29 287.68 260.595 310.279C261.76 321.699 262.703 333.464 263.616 344.838C265.991 374.433 268.444 405.035 275.014 431.808C278.195 444.782 281.931 457.573 286.118 469.827C291.194 484.654 297.051 499.038 303.524 512.581C313.515 533.287 325.948 559.059 351.024 559.548C364.742 559.879 378.657 552.938 392.383 538.922C420.192 510.562 443.153 458.031 459.917 419.675C464.621 408.911 469.064 398.744 472.958 390.627C481.61 372.586 493.329 348.883 507.28 325.519C531.441 285.029 556.48 255.052 581.701 236.426C590.56 229.857 599.635 224.525 608.671 220.575C621.529 214.947 634.229 212.263 646.416 212.601C657.897 212.921 668.676 215.899 678.454 221.453C686.682 226.188 693.873 232.668 699.828 240.709C705.841 248.831 710.439 258.346 713.496 268.989C717.033 281.289 718.893 295.305 719.02 310.65C719.141 325.193 717.713 341.043 714.776 357.765C709.26 389.158 698.385 423.661 683.328 457.545L682.656 457.434C715.094 384.439 726.053 315.992 712.724 269.647C706.685 248.624 694.313 231.838 677.885 222.386C657.574 210.852 633.614 210.545 608.593 221.498C599.63 225.415 590.63 230.705 581.841 237.221C556.787 255.723 531.895 285.532 507.855 325.823C493.941 349.124 482.247 372.78 473.611 390.786C469.732 398.875 465.293 409.029 460.595 419.779C451.929 439.605 442.106 462.079 430.786 483.549C417.603 508.547 405.145 526.87 392.7 539.561C385.994 546.409 379.205 551.643 372.519 555.119C365.269 558.888 357.915 560.71 350.658 560.536C339.378 560.315 329.686 555.117 321.027 544.643C313.501 535.538 307.808 523.739 302.785 513.331C296.301 499.769 290.438 485.364 285.354 470.517C281.161 458.245 277.419 445.436 274.233 432.445C267.649 405.617 265.192 374.981 262.815 345.356C261.904 333.985 260.959 322.226 259.796 310.816C257.494 288.257 254.813 271.587 251.103 256.764C242.873 223.897 224.584 205.037 196.744 200.693C152.934 193.733 94.7452 223.702 53.6438 250.071C24.0501 269.126 -6.63938 292.682 -32.7705 316.399C-52.8482 334.621 -70.8326 354.427 -89.8723 375.395C-91.9939 377.731 -94.1189 380.072 -96.2503 382.412C-100.405 386.978 -105.886 392.983 -111.431 398.94C-133.238 422.383 -161.458 448.677 -186.328 443.873C-187.211 443.7 -188.091 443.495 -188.961 443.258Z" fill="#FFE492"/>
</g>
<g id="Group_33">
<path id="Vector_33" d="M-200.389 472.374C-222.066 466.474 -234.902 440.207 -246.281 416.92C-249.778 409.766 -253.081 403.006 -256.486 397.124L-311.491 302.122L-310.732 301.303L-255.727 396.305C-252.312 402.202 -249.006 408.969 -245.505 416.134C-233.686 440.321 -220.289 467.736 -197.095 471.989C-171.912 476.61 -143.273 447.895 -121.138 422.365C-113.898 414.015 -106.675 405.48 -99.6879 397.226C-80.58 374.652 -60.822 351.308 -39.527 330.374C-22.618 313.752 -3.39968 296.724 16.0486 281.133C37.3843 264.028 58.7011 248.81 79.4031 235.9C102.228 221.668 123.751 210.614 143.37 203.046C165.07 194.676 184.384 190.612 200.78 190.967C233.624 191.678 254.807 209.931 263.736 245.221C271.159 274.546 272.874 308.778 274.533 341.883C275.977 370.698 277.47 400.493 282.71 427.041C288.763 457.704 297.327 486.812 308.168 513.554C317.3 536.086 328.666 564.131 354.007 565.42C375.409 566.51 396.223 550.038 417.638 515.062C435.854 485.311 450.804 448.206 462.817 418.394C466.91 408.234 470.777 398.637 474.158 390.922C492.794 348.389 511.215 314.104 530.472 286.11C542.486 268.645 554.945 253.552 567.5 241.251C581.525 227.51 596.091 216.837 610.795 209.53C623.515 203.209 636.144 199.541 648.335 198.628C659.939 197.759 670.899 199.393 680.911 203.484C700.601 211.528 715.309 228.622 722.325 251.615C726.076 263.906 728.035 277.997 728.146 293.496C728.252 308.185 726.705 324.232 723.547 341.195C717.596 373.147 705.945 408.183 689.853 442.509L689.16 442.359C723.425 369.26 735.521 298.216 721.512 252.317C706.636 203.574 660.056 185.978 610.753 210.48C561.913 234.751 517.464 293.81 474.868 391.03C471.498 398.72 467.636 408.304 463.548 418.452C451.509 448.329 436.528 485.513 418.228 515.398C408.261 531.676 398.195 544.199 388.309 552.62C382.75 557.354 377.104 560.923 371.527 563.224C365.593 565.673 359.563 566.761 353.602 566.458C351.166 566.334 348.809 565.963 346.532 565.343C338.233 563.085 330.955 557.514 324.433 548.466C317.087 538.273 311.7 524.984 307.372 514.307C296.519 487.527 287.941 458.381 281.879 427.674C276.626 401.069 275.132 371.239 273.687 342.393C272.03 309.33 270.317 275.141 262.913 245.89C254.041 210.84 233.006 192.709 200.388 192.003C134.409 190.576 29.9307 263.09 -39.2218 331.068C-60.4589 351.944 -80.1903 375.256 -99.2726 397.799C-106.263 406.058 -113.491 414.598 -120.737 422.956C-135.433 439.905 -147.472 451.629 -158.622 459.847C-165.581 464.975 -172.225 468.703 -178.369 470.927C-185.2 473.398 -191.659 474.102 -197.568 473.019C-198.521 472.841 -199.463 472.626 -200.389 472.374Z" fill="#FFE492"/>
</g>
</g>
</svg>
