<svg width="114" height="24" viewBox="0 0 114 24" fill="none" xmlns="http://www.w3.org/2000/svg">
<g clip-path="url(#clip0_502_1904)">
<path d="M0.513184 3.4133V8.15097C0.513184 9.59392 2.2714 10.3635 3.34587 9.35343L8.474 4.61575C9.5973 3.58164 8.86471 1.75391 7.32627 1.75391H2.19814C1.27019 1.75391 0.513184 2.49943 0.513184 3.4133Z" fill="white"/>
<path d="M24.7862 1.75391H19.658C18.144 1.75391 17.387 3.58164 18.5103 4.61575L23.6385 9.35343C24.7129 10.3394 26.4711 9.59392 26.4711 8.15097V3.4133C26.4711 2.49943 25.7141 1.75391 24.7862 1.75391Z" fill="white"/>
<path d="M14.6522 13.3215L23.6386 21.6425C24.7131 22.6285 26.4713 21.883 26.4713 20.4401V15.6543C26.4713 15.1974 26.2759 14.7645 25.9341 14.4518L14.6522 3.99047C13.9928 3.38924 12.9916 3.38924 12.3323 3.99047L1.05042 14.4518C0.708541 14.7645 0.513184 15.1974 0.513184 15.6543V20.4401C0.513184 21.883 2.2714 22.6526 3.34587 21.6425L12.3323 13.3215C12.9916 12.7203 13.9928 12.7203 14.6522 13.3215Z" fill="white"/>
</g>
<path d="M44.2017 9.33148C44.1041 8.99199 43.9669 8.69203 43.7901 8.4316C43.6134 8.16651 43.3972 7.94329 43.1414 7.76191C42.8903 7.57589 42.6019 7.43405 42.2764 7.33639C41.9555 7.23873 41.5997 7.1899 41.2091 7.1899C40.4789 7.1899 39.8372 7.37127 39.2837 7.73401C38.735 8.09675 38.3071 8.62459 38.0002 9.31753C37.6933 10.0058 37.5398 10.8476 37.5398 11.8428C37.5398 12.838 37.6909 13.6844 37.9932 14.382C38.2955 15.0796 38.7234 15.6121 39.2768 15.9795C39.8302 16.3422 40.4836 16.5236 41.237 16.5236C41.9206 16.5236 42.5043 16.4027 42.9879 16.1608C43.4762 15.9144 43.8483 15.5679 44.1041 15.1214C44.3645 14.675 44.4947 14.1471 44.4947 13.5379L45.1086 13.6286H41.4253V11.3545H47.4036V13.1542C47.4036 14.4099 47.1385 15.4888 46.6084 16.391C46.0782 17.2886 45.3481 17.9815 44.418 18.4698C43.4879 18.9535 42.4229 19.1953 41.223 19.1953C39.8837 19.1953 38.7071 18.9 37.6933 18.3094C36.6794 17.7141 35.8888 16.87 35.3215 15.7772C34.7587 14.6796 34.4774 13.3775 34.4774 11.8707C34.4774 10.7127 34.6448 9.68027 34.9796 8.77341C35.3191 7.8619 35.7935 7.08991 36.4027 6.45743C37.0119 5.82495 37.7212 5.34362 38.5304 5.01343C39.3395 4.68324 40.2162 4.51815 41.1602 4.51815C41.9694 4.51815 42.7228 4.63674 43.4204 4.87391C44.118 5.10644 44.7365 5.43663 45.276 5.86448C45.8201 6.29234 46.2642 6.80157 46.6084 7.39219C46.9525 7.97816 47.1734 8.62459 47.2711 9.33148H44.2017ZM52.6721 19.2023C51.9885 19.2023 51.3793 19.0837 50.8445 18.8465C50.3096 18.6047 49.8864 18.2489 49.5749 17.7792C49.2679 17.3049 49.1145 16.7142 49.1145 16.0074C49.1145 15.4121 49.2237 14.9122 49.4423 14.5076C49.6609 14.103 49.9585 13.7774 50.3352 13.5309C50.7119 13.2845 51.1398 13.0984 51.6188 12.9729C52.1024 12.8473 52.6094 12.7589 53.1395 12.7078C53.7627 12.6427 54.265 12.5822 54.6463 12.5264C55.0276 12.466 55.3044 12.3776 55.4764 12.2613C55.6485 12.1451 55.7345 11.973 55.7345 11.7451V11.7033C55.7345 11.2615 55.595 10.9196 55.316 10.6778C55.0416 10.436 54.6509 10.3151 54.144 10.3151C53.6092 10.3151 53.1837 10.4337 52.8675 10.6708C52.5512 10.9034 52.3419 11.1964 52.2396 11.5498L49.4911 11.3266C49.6307 10.6755 49.905 10.1128 50.3143 9.63842C50.7235 9.15941 51.2514 8.79201 51.8978 8.53623C52.5489 8.2758 53.3023 8.14559 54.158 8.14559C54.7533 8.14559 55.323 8.21534 55.8671 8.35486C56.4158 8.49438 56.9018 8.71063 57.325 9.00361C57.7529 9.2966 58.09 9.6733 58.3365 10.1337C58.583 10.5895 58.7062 11.1359 58.7062 11.773V19H55.888V17.5141H55.8043C55.6322 17.849 55.402 18.1443 55.1137 18.4001C54.8253 18.6512 54.4789 18.8489 54.0743 18.993C53.6697 19.1325 53.2023 19.2023 52.6721 19.2023ZM53.5232 17.1514C53.9603 17.1514 54.3463 17.0654 54.6812 16.8933C55.016 16.7166 55.2788 16.4794 55.4694 16.1818C55.6601 15.8841 55.7555 15.547 55.7555 15.1703V14.0332C55.6624 14.0937 55.5346 14.1495 55.3718 14.2006C55.2137 14.2471 55.0346 14.2913 54.8346 14.3332C54.6347 14.3704 54.4347 14.4052 54.2347 14.4378C54.0347 14.4657 53.8534 14.4913 53.6906 14.5145C53.3418 14.5657 53.0372 14.6471 52.7768 14.7587C52.5163 14.8703 52.314 15.0214 52.1699 15.2121C52.0257 15.3981 51.9536 15.6307 51.9536 15.9097C51.9536 16.3143 52.1001 16.6236 52.3931 16.8375C52.6907 17.0468 53.0674 17.1514 53.5232 17.1514ZM63.9835 4.71347V19H61.0118V4.71347H63.9835ZM69.4194 19.2023C68.7358 19.2023 68.1265 19.0837 67.5917 18.8465C67.0569 18.6047 66.6337 18.2489 66.3221 17.7792C66.0152 17.3049 65.8617 16.7142 65.8617 16.0074C65.8617 15.4121 65.971 14.9122 66.1896 14.5076C66.4082 14.103 66.7058 13.7774 67.0825 13.5309C67.4592 13.2845 67.887 13.0984 68.366 12.9729C68.8497 12.8473 69.3566 12.7589 69.8868 12.7078C70.5099 12.6427 71.0122 12.5822 71.3936 12.5264C71.7749 12.466 72.0516 12.3776 72.2237 12.2613C72.3958 12.1451 72.4818 11.973 72.4818 11.7451V11.7033C72.4818 11.2615 72.3423 10.9196 72.0632 10.6778C71.7889 10.436 71.3982 10.3151 70.8913 10.3151C70.3565 10.3151 69.931 10.4337 69.6147 10.6708C69.2985 10.9034 69.0892 11.1964 68.9869 11.5498L66.2384 11.3266C66.3779 10.6755 66.6523 10.1128 67.0616 9.63842C67.4708 9.15941 67.9986 8.79201 68.6451 8.53623C69.2962 8.2758 70.0495 8.14559 70.9052 8.14559C71.5005 8.14559 72.0702 8.21534 72.6143 8.35486C73.1631 8.49438 73.6491 8.71063 74.0723 9.00361C74.5001 9.2966 74.8373 9.6733 75.0838 10.1337C75.3303 10.5895 75.4535 11.1359 75.4535 11.773V19H72.6353V17.5141H72.5515C72.3795 17.849 72.1493 18.1443 71.8609 18.4001C71.5726 18.6512 71.2261 18.8489 70.8215 18.993C70.4169 19.1325 69.9496 19.2023 69.4194 19.2023ZM70.2704 17.1514C70.7076 17.1514 71.0936 17.0654 71.4284 16.8933C71.7633 16.7166 72.026 16.4794 72.2167 16.1818C72.4074 15.8841 72.5027 15.547 72.5027 15.1703V14.0332C72.4097 14.0937 72.2818 14.1495 72.119 14.2006C71.9609 14.2471 71.7819 14.2913 71.5819 14.3332C71.3819 14.3704 71.182 14.4052 70.982 14.4378C70.782 14.4657 70.6006 14.4913 70.4379 14.5145C70.0891 14.5657 69.7845 14.6471 69.524 14.7587C69.2636 14.8703 69.0613 15.0214 68.9171 15.2121C68.773 15.3981 68.7009 15.6307 68.7009 15.9097C68.7009 16.3143 68.8474 16.6236 69.1404 16.8375C69.438 17.0468 69.8147 17.1514 70.2704 17.1514ZM82.6002 19.2093C81.5027 19.2093 80.5587 18.9767 79.7681 18.5117C78.9821 18.042 78.3775 17.3909 77.9543 16.5585C77.5358 15.726 77.3265 14.768 77.3265 13.6844C77.3265 12.5869 77.5381 11.6242 77.9613 10.7964C78.3892 9.96396 78.9961 9.3152 79.782 8.85015C80.568 8.38044 81.5027 8.14559 82.5863 8.14559C83.5211 8.14559 84.3396 8.31533 85.0418 8.65482C85.744 8.99431 86.2998 9.471 86.709 10.0849C87.1183 10.6987 87.3438 11.4196 87.3857 12.2474H84.5814C84.5023 11.7126 84.2931 11.2824 83.9536 10.9569C83.6187 10.6267 83.1792 10.4616 82.6351 10.4616C82.1747 10.4616 81.7724 10.5871 81.4283 10.8383C81.0888 11.0847 80.8237 11.4452 80.6331 11.9195C80.4424 12.3939 80.3471 12.9682 80.3471 13.6426C80.3471 14.3262 80.4401 14.9075 80.6261 15.3865C80.8168 15.8655 81.0842 16.2306 81.4283 16.4817C81.7724 16.7329 82.1747 16.8584 82.6351 16.8584C82.9746 16.8584 83.2792 16.7887 83.549 16.6491C83.8233 16.5096 84.0489 16.3073 84.2256 16.0422C84.407 15.7725 84.5256 15.4493 84.5814 15.0726H87.3857C87.3392 15.8911 87.1159 16.6119 86.716 17.2351C86.3207 17.8536 85.7743 18.3373 85.0767 18.6861C84.3791 19.0349 83.5536 19.2093 82.6002 19.2093ZM94.9876 8.2851V10.5174H88.5349V8.2851H94.9876ZM89.9999 5.71799H92.9716V15.7074C92.9716 15.9818 93.0134 16.1957 93.0972 16.3492C93.1809 16.498 93.2971 16.6026 93.4459 16.6631C93.5994 16.7235 93.7761 16.7538 93.9761 16.7538C94.1156 16.7538 94.2551 16.7422 94.3947 16.7189C94.5342 16.691 94.6411 16.6701 94.7155 16.6561L95.1829 18.8675C95.0341 18.914 94.8248 18.9674 94.5551 19.0279C94.2854 19.093 93.9575 19.1325 93.5715 19.1465C92.8553 19.1744 92.2275 19.0791 91.688 18.8605C91.1532 18.6419 90.737 18.3024 90.4394 17.842C90.1417 17.3816 89.9952 16.8003 89.9999 16.098V5.71799ZM96.9234 19V8.2851H99.8951V19H96.9234ZM98.4162 6.90389C97.9744 6.90389 97.5954 6.75739 97.2792 6.46441C96.9676 6.16677 96.8118 5.811 96.8118 5.3971C96.8118 4.98785 96.9676 4.63674 97.2792 4.34375C97.5954 4.04611 97.9744 3.8973 98.4162 3.8973C98.858 3.8973 99.2347 4.04611 99.5463 4.34375C99.8626 4.63674 100.021 4.98785 100.021 5.3971C100.021 5.811 99.8626 6.16677 99.5463 6.46441C99.2347 6.75739 98.858 6.90389 98.4162 6.90389ZM107.117 19.2093C106.019 19.2093 105.075 18.9767 104.285 18.5117C103.499 18.042 102.894 17.3909 102.471 16.5585C102.052 15.726 101.843 14.768 101.843 13.6844C101.843 12.5869 102.055 11.6242 102.478 10.7964C102.906 9.96396 103.513 9.3152 104.299 8.85015C105.085 8.38044 106.019 8.14559 107.103 8.14559C108.038 8.14559 108.856 8.31533 109.558 8.65482C110.261 8.99431 110.816 9.471 111.226 10.0849C111.635 10.6987 111.86 11.4196 111.902 12.2474H109.098C109.019 11.7126 108.81 11.2824 108.47 10.9569C108.135 10.6267 107.696 10.4616 107.152 10.4616C106.691 10.4616 106.289 10.5871 105.945 10.8383C105.605 11.0847 105.34 11.4452 105.15 11.9195C104.959 12.3939 104.864 12.9682 104.864 13.6426C104.864 14.3262 104.957 14.9075 105.143 15.3865C105.333 15.8655 105.601 16.2306 105.945 16.4817C106.289 16.7329 106.691 16.8584 107.152 16.8584C107.491 16.8584 107.796 16.7887 108.066 16.6491C108.34 16.5096 108.566 16.3073 108.742 16.0422C108.924 15.7725 109.042 15.4493 109.098 15.0726H111.902C111.856 15.8911 111.633 16.6119 111.233 17.2351C110.837 17.8536 110.291 18.3373 109.593 18.6861C108.896 19.0349 108.07 19.2093 107.117 19.2093Z" fill="white"/>
<defs>
<clipPath id="clip0_502_1904">
<rect width="25.9581" height="20.3455" fill="white" transform="translate(0.513184 1.75391)"/>
</clipPath>
</defs>
</svg>
